<svg xmlns="http://www.w3.org/2000/svg" xmlns:xlink="http://www.w3.org/1999/xlink" version="1.1" viewBox="0 0 7270 2558" style="background: #ffffff"><defs joint-selector="defs"></defs><g joint-selector="layers"  transform="matrix(1,0,0,1,0,0)"><g ></g><g ><!--z-index:0--><!--z-index:1--><!--z-index:2--><!--z-index:3--><!--z-index:4--><!--z-index:5--><!--z-index:6--><!--z-index:7--><!--z-index:8--><!--z-index:9--><!--z-index:10--><!--z-index:11--><!--z-index:12--><!--z-index:13--><!--z-index:14--><!--z-index:15--><!--z-index:16--><!--z-index:17--><!--z-index:18--><!--z-index:19--><!--z-index:20--><!--z-index:21--><!--z-index:22--><!--z-index:23--><!--z-index:24--><!--z-index:25--><!--z-index:26--><!--z-index:27--><!--z-index:28--><!--z-index:29--><!--z-index:30--><!--z-index:31--><!--z-index:32--><!--z-index:33--><!--z-index:34--><!--z-index:35--><!--z-index:36--><!--z-index:37--><!--z-index:38--><!--z-index:39--><!--z-index:40--><!--z-index:41--><!--z-index:42--><!--z-index:43--><!--z-index:44--><!--z-index:45--><!--z-index:46--><!--z-index:47--><!--z-index:48--><g   id="j_236"  transform="translate(20,2514)"><g id="v-3407"><text  id="v-3408" font-size="24px" xml:space="preserve" y="0.8em" font-weight="normal" text-anchor="start" fill="#444444" pointer-events="none" display="block" font-family="Open Sans, Tahoma, Arial"><tspan dy="0" >martes, 6 de octubre de 2026, 15:01 hora estándar de Colombia</tspan></text></g></g><!--z-index:49--><g   id="j_235"  transform="translate(20,2480)"><g id="v-3405"><text  id="v-3406" font-size="24px" xml:space="preserve" y="0.8em" font-weight="normal" text-anchor="start" fill="#444444" pointer-events="none" display="block" font-family="Open Sans, Tahoma, Arial"><tspan dy="0" >C4-L3 · Componentes de Flutter Mobile — Sprint 3</tspan></text></g></g><!--z-index:50--><g   id="j_234"  transform="translate(20,2434)"><g id="v-3403"><text  id="v-3404" font-size="36px" xml:space="preserve" y="0.8em" font-weight="normal" text-anchor="start" fill="#444444" pointer-events="none" display="block" font-family="Open Sans, Tahoma, Arial"><tspan dy="0" >Component View: QUICKPATCH - Flutter Mobile</tspan></text></g></g><!--z-index:51--><g   id="j_237"  transform="translate(199,453)" style=""><g  id="v-3415" style="opacity: 1;"><rect  x="0" y="160" width="400" height="240" rx="70" id="v-3417" stroke-width="2" pointer-events="visiblePainted" fill="#08427b" stroke="#073b6f" stroke-dasharray=""></rect><circle  cx="200" cy="88.88888888888889" r="88.88888888888889" id="v-3416" stroke-width="2" pointer-events="visiblePainted" fill="#08427b" stroke="#073b6f" stroke-dasharray=""></circle><line  x1="80" y1="266.6666666666667" x2="80" y2="400" id="v-3423" stroke="#073b6f" stroke-width="1" stroke-dasharray=""></line><line  x1="320" y1="266.6666666666667" x2="320" y2="400" id="v-3424" stroke="#073b6f" stroke-width="1" stroke-dasharray=""></line><text  id="v-3418" font-size="33.599999999999994px" xml:space="preserve" y="196.74" font-weight="bold" text-anchor="middle" pointer-events="visible" font-family="Open Sans, Tahoma, Arial" fill="#ffffff" dominant-baseline="hanging" transform="matrix(1,0,0,1,200,0)"><tspan dy="0" >Cliente y empresa</tspan><tspan dy="1.2em" x="0" >cliente</tspan></text><text  id="v-3419" font-size="16.799999999999997px" xml:space="preserve" y="278.65999999999997" text-anchor="middle" font-family="Open Sans, Tahoma, Arial" fill="#ffffff" dominant-baseline="hanging" transform="matrix(1,0,0,1,200,0)" style="display: block;"><tspan dy="0" >[Person]</tspan></text><text  id="v-3420" font-size="24px" xml:space="preserve" y="310.46" text-anchor="middle" font-family="Open Sans, Tahoma, Arial" fill="#ffffff" dominant-baseline="hanging" transform="matrix(1,0,0,1,200,0)" style="display: block;"><tspan dy="0" >Piden, siguen y pagan</tspan><tspan dy="1.2em" x="0" >servicios.</tspan></text><g  id="v-3421" font-weight="normal" text-anchor="middle" color="#ffffff" transform="matrix(1,0,0,1,197.5,368)" display="none"><g ></g><g ></g><g ></g><g ></g></g><image  id="v-3422"></image></g></g><!--z-index:52--><g   id="j_238"  transform="translate(199,1153)" style=""><g  id="v-3431" style="opacity: 1;"><rect  x="0" y="160" width="400" height="240" rx="70" id="v-3433" stroke-width="2" pointer-events="visiblePainted" fill="#08427b" stroke="#073b6f" stroke-dasharray=""></rect><circle  cx="200" cy="88.88888888888889" r="88.88888888888889" id="v-3432" stroke-width="2" pointer-events="visiblePainted" fill="#08427b" stroke="#073b6f" stroke-dasharray=""></circle><line  x1="80" y1="266.6666666666667" x2="80" y2="400" id="v-3439" stroke="#073b6f" stroke-width="1" stroke-dasharray=""></line><line  x1="320" y1="266.6666666666667" x2="320" y2="400" id="v-3440" stroke="#073b6f" stroke-width="1" stroke-dasharray=""></line><text  id="v-3434" font-size="33.599999999999994px" xml:space="preserve" y="202.5" font-weight="bold" text-anchor="middle" pointer-events="visible" font-family="Open Sans, Tahoma, Arial" fill="#ffffff" dominant-baseline="hanging" transform="matrix(1,0,0,1,200,0)"><tspan dy="0" >Técnico y proveedor</tspan></text><text  id="v-3435" font-size="16.799999999999997px" xml:space="preserve" y="244.1" text-anchor="middle" font-family="Open Sans, Tahoma, Arial" fill="#ffffff" dominant-baseline="hanging" transform="matrix(1,0,0,1,200,0)" style="display: block;"><tspan dy="0" >[Person]</tspan></text><text  id="v-3436" font-size="24px" xml:space="preserve" y="275.9" text-anchor="middle" font-family="Open Sans, Tahoma, Arial" fill="#ffffff" dominant-baseline="hanging" transform="matrix(1,0,0,1,200,0)" style="display: block;"><tspan dy="0" >Prestan servicios; el</tspan><tspan dy="1.2em" x="0" >proveedor administra su</tspan><tspan dy="1.2em" x="0" >equipo (RF-16).</tspan></text><g  id="v-3437" font-weight="normal" text-anchor="middle" color="#ffffff" transform="matrix(1,0,0,1,197.5,368)" display="none"><g ></g><g ></g><g ></g><g ></g></g><image  id="v-3438"></image></g></g><!--z-index:53--><g   id="j_241"  transform="translate(1159,143)" style=""><g id="v-3459"><rect  id="v-3460" width="5910" height="2158" rx="0" ry="0" stroke-width="2" pointer-events="none" stroke="#444444" fill="#ffffff" stroke-dasharray=""></rect><text  id="v-3461" font-size="33.599999999999994px" xml:space="preserve" y="2119" font-weight="bold" text-anchor="start" pointer-events="visible" font-family="Open Sans, Tahoma, Arial" fill="#444444" transform="matrix(1,0,0,1,15,0)"><tspan dy="0" >QUICKPATCH</tspan></text><text  id="v-3462" font-size="16.799999999999997px" xml:space="preserve" y="2143" font-weight="normal" text-anchor="start" pointer-events="visible" font-family="Open Sans, Tahoma, Arial" fill="#444444" transform="matrix(1,0,0,1,15,0)"><tspan dy="0" >[Software System]</tspan></text><image  id="v-3463" pointer-events="visible"></image></g></g><!--z-index:54--><g   id="j_240"  transform="translate(1179,163)" style=""><g id="v-3454"><rect  id="v-3455" width="4990" height="2039" rx="20" ry="20" stroke-width="2" pointer-events="none" stroke="#3c7fc0" fill="#ffffff" stroke-dasharray=""></rect><text  id="v-3456" font-size="33.599999999999994px" xml:space="preserve" y="2000" font-weight="bold" text-anchor="start" pointer-events="visible" font-family="Open Sans, Tahoma, Arial" fill="#3c7fc0" transform="matrix(1,0,0,1,15,0)"><tspan dy="0" >Flutter Mobile</tspan></text><text  id="v-3457" font-size="16.799999999999997px" xml:space="preserve" y="2024" font-weight="normal" text-anchor="start" pointer-events="visible" font-family="Open Sans, Tahoma, Arial" fill="#3c7fc0" transform="matrix(1,0,0,1,15,0)"><tspan dy="0" >[Container]</tspan></text><image  id="v-3458" pointer-events="visible"></image></g></g><!--z-index:55--><g   id="j_250"  transform="translate(6599,1158)" style=""><g  id="v-3586" style="opacity: 1;"><polygon  id="v-3587" stroke-width="2" pointer-events="visiblePainted" fill="#438dd5" stroke="#3c7fc0" stroke-dasharray="" points="112.5,0 337.5,0 450,194.5 337.5,389 112.5,389 0,194.5"></polygon><text  id="v-3588" font-size="33.599999999999994px" xml:space="preserve" y="145.8" font-weight="bold" text-anchor="middle" pointer-events="visible" font-family="Open Sans, Tahoma, Arial" fill="#ffffff" dominant-baseline="hanging" transform="matrix(1,0,0,1,225,0)"><tspan dy="0" >API Gateway</tspan></text><text  id="v-3589" font-size="16.799999999999997px" xml:space="preserve" y="187.4" text-anchor="middle" font-family="Open Sans, Tahoma, Arial" fill="#ffffff" dominant-baseline="hanging" transform="matrix(1,0,0,1,225,0)" style="display: block;"><tspan dy="0" >[Container: Nginx + gateway]</tspan></text><text  id="v-3590" font-size="24px" xml:space="preserve" y="219.2" text-anchor="middle" font-family="Open Sans, Tahoma, Arial" fill="#ffffff" dominant-baseline="hanging" transform="matrix(1,0,0,1,225,0)" style="display: block;"><tspan dy="0" >Enruta, autentica y limita.</tspan></text><g  id="v-3591" font-weight="normal" text-anchor="middle" color="#ffffff" transform="matrix(1,0,0,1,222.1,357)" display="none"><g ></g><g ></g><g ></g><g ></g></g><image  id="v-3592"></image></g></g><!--z-index:56--><g   id="j_239"  transform="translate(3449,1173)" style=""><g  id="v-3447" style="opacity: 1;"><rect  id="v-3448" rx="1" ry="1" stroke-width="2" pointer-events="visiblePainted" fill="#85bbf0" stroke="#78a8d8" stroke-dasharray="" width="450" height="300"></rect><text  id="v-3449" font-size="33.599999999999994px" xml:space="preserve" y="72.5" font-weight="bold" text-anchor="middle" pointer-events="visible" font-family="Open Sans, Tahoma, Arial" fill="#000000" dominant-baseline="hanging" transform="matrix(1,0,0,1,225,0)"><tspan dy="0" >Navegación</tspan></text><text  id="v-3450" font-size="16.799999999999997px" xml:space="preserve" y="114.1" text-anchor="middle" font-family="Open Sans, Tahoma, Arial" fill="#000000" dominant-baseline="hanging" transform="matrix(1,0,0,1,225,0)" style="display: block;"><tspan dy="0" >[Component: Flutter Navigation · core]</tspan></text><text  id="v-3451" font-size="24px" xml:space="preserve" y="145.89999999999998" text-anchor="middle" font-family="Open Sans, Tahoma, Arial" fill="#000000" dominant-baseline="hanging" transform="matrix(1,0,0,1,225,0)" style="display: block;"><tspan dy="0" >Define pantallas, rutas protegidas</tspan><tspan dy="1.2em" x="0" >y el flujo entre los pasos de la</tspan><tspan dy="1.2em" x="0" >solicitud.</tspan></text><g  id="v-3452" color="#000000" transform="matrix(1,0,0,1,222.5,268)" display="none"><g ></g><g ></g><g ></g><g ></g></g><image  id="v-3453"></image></g></g><!--z-index:57--><g   id="j_242"  transform="translate(1199,348)" style=""><g  id="v-3470" style="opacity: 1;"><rect  id="v-3471" rx="1" ry="1" stroke-width="2" pointer-events="visiblePainted" fill="#85bbf0" stroke="#78a8d8" stroke-dasharray="" width="450" height="300"></rect><text  id="v-3472" font-size="33.599999999999994px" xml:space="preserve" y="62.420000000000016" font-weight="bold" text-anchor="middle" pointer-events="visible" font-family="Open Sans, Tahoma, Arial" fill="#000000" dominant-baseline="hanging" transform="matrix(1,0,0,1,225,0)"><tspan dy="0" >Login</tspan></text><text  id="v-3473" font-size="16.799999999999997px" xml:space="preserve" y="104.02000000000001" text-anchor="middle" font-family="Open Sans, Tahoma, Arial" fill="#000000" dominant-baseline="hanging" transform="matrix(1,0,0,1,225,0)" style="display: block;"><tspan dy="0" >[Component: Flutter Screen ·</tspan><tspan dy="1.2em" x="0" >features/auth/presentation]</tspan></text><text  id="v-3474" font-size="24px" xml:space="preserve" y="155.98000000000002" text-anchor="middle" font-family="Open Sans, Tahoma, Arial" fill="#000000" dominant-baseline="hanging" transform="matrix(1,0,0,1,225,0)" style="display: block;"><tspan dy="0" >Formulario de acceso con</tspan><tspan dy="1.2em" x="0" >validaciones y estados de carga y</tspan><tspan dy="1.2em" x="0" >error.</tspan></text><g  id="v-3475" color="#000000" transform="matrix(1,0,0,1,222.5,268)" display="none"><g ></g><g ></g><g ></g><g ></g></g><image  id="v-3476"></image></g></g><!--z-index:58--><g   id="j_243"  transform="translate(1949,348)" style=""><g  id="v-3483" style="opacity: 1;"><rect  id="v-3484" rx="1" ry="1" stroke-width="2" pointer-events="visiblePainted" fill="#85bbf0" stroke="#78a8d8" stroke-dasharray="" width="450" height="300"></rect><text  id="v-3485" font-size="33.599999999999994px" xml:space="preserve" y="58.10000000000001" font-weight="bold" text-anchor="middle" pointer-events="visible" font-family="Open Sans, Tahoma, Arial" fill="#000000" dominant-baseline="hanging" transform="matrix(1,0,0,1,225,0)"><tspan dy="0" >Sesión</tspan></text><text  id="v-3486" font-size="16.799999999999997px" xml:space="preserve" y="99.7" text-anchor="middle" font-family="Open Sans, Tahoma, Arial" fill="#000000" dominant-baseline="hanging" transform="matrix(1,0,0,1,225,0)" style="display: block;"><tspan dy="0" >[Component: Dart Service · core/auth]</tspan></text><text  id="v-3487" font-size="24px" xml:space="preserve" y="131.5" text-anchor="middle" font-family="Open Sans, Tahoma, Arial" fill="#000000" dominant-baseline="hanging" transform="matrix(1,0,0,1,225,0)" style="display: block;"><tspan dy="0" >Autentica, guarda el token en</tspan><tspan dy="1.2em" x="0" >almacenamiento seguro del</tspan><tspan dy="1.2em" x="0" >dispositivo y expone el usuario y</tspan><tspan dy="1.2em" x="0" >su rol.</tspan></text><g  id="v-3488" color="#000000" transform="matrix(1,0,0,1,222.5,268)" display="none"><g ></g><g ></g><g ></g><g ></g></g><image  id="v-3489"></image></g></g><!--z-index:59--><g   id="j_244"  transform="translate(4199,1018)" style=""><g  id="v-3499" style="opacity: 1;"><rect  id="v-3500" rx="1" ry="1" stroke-width="2" pointer-events="visiblePainted" fill="#85bbf0" stroke="#78a8d8" stroke-dasharray="" width="450" height="300"></rect><text  id="v-3501" font-size="33.599999999999994px" xml:space="preserve" y="42.26000000000002" font-weight="bold" text-anchor="middle" pointer-events="visible" font-family="Open Sans, Tahoma, Arial" fill="#000000" dominant-baseline="hanging" transform="matrix(1,0,0,1,225,0)"><tspan dy="0" >Asistente de nueva</tspan><tspan dy="1.2em" x="0" >solicitud</tspan></text><text  id="v-3502" font-size="16.799999999999997px" xml:space="preserve" y="124.18" text-anchor="middle" font-family="Open Sans, Tahoma, Arial" fill="#000000" dominant-baseline="hanging" transform="matrix(1,0,0,1,225,0)" style="display: block;"><tspan dy="0" >[Component: Flutter Screens ·</tspan><tspan dy="1.2em" x="0" >features/service_requests/presentation]</tspan></text><text  id="v-3503" font-size="24px" xml:space="preserve" y="176.14000000000001" text-anchor="middle" font-family="Open Sans, Tahoma, Arial" fill="#000000" dominant-baseline="hanging" transform="matrix(1,0,0,1,225,0)" style="display: block;"><tspan dy="0" >Pasos: categoría, ubicación,</tspan><tspan dy="1.2em" x="0" >descripción y resumen,</tspan><tspan dy="1.2em" x="0" >confirmación.</tspan></text><g  id="v-3504" color="#000000" transform="matrix(1,0,0,1,222.5,268)" display="none"><g ></g><g ></g><g ></g><g ></g></g><image  id="v-3505"></image></g></g><!--z-index:60--><g   id="j_245"  transform="translate(4949,1048)" style=""><g  id="v-3515" style="opacity: 1;"><rect  id="v-3516" rx="1" ry="1" stroke-width="2" pointer-events="visiblePainted" fill="#85bbf0" stroke="#78a8d8" stroke-dasharray="" width="450" height="300"></rect><text  id="v-3517" font-size="33.599999999999994px" xml:space="preserve" y="27.860000000000014" font-weight="bold" text-anchor="middle" pointer-events="visible" font-family="Open Sans, Tahoma, Arial" fill="#000000" dominant-baseline="hanging" transform="matrix(1,0,0,1,225,0)"><tspan dy="0" >Estado y reglas de la</tspan><tspan dy="1.2em" x="0" >solicitud</tspan></text><text  id="v-3518" font-size="16.799999999999997px" xml:space="preserve" y="109.78" text-anchor="middle" font-family="Open Sans, Tahoma, Arial" fill="#000000" dominant-baseline="hanging" transform="matrix(1,0,0,1,225,0)" style="display: block;"><tspan dy="0" >[Component: Dart ·</tspan><tspan dy="1.2em" x="0" >features/service_requests/domain]</tspan></text><text  id="v-3519" font-size="24px" xml:space="preserve" y="161.74" text-anchor="middle" font-family="Open Sans, Tahoma, Arial" fill="#000000" dominant-baseline="hanging" transform="matrix(1,0,0,1,225,0)" style="display: block;"><tspan dy="0" >Conserva los datos entre pasos y</tspan><tspan dy="1.2em" x="0" >valida antes de enviar: categoría,</tspan><tspan dy="1.2em" x="0" >ubicación, dirección (5 a 255) y</tspan><tspan dy="1.2em" x="0" >descripción (10 a 1000).</tspan></text><g  id="v-3520" color="#000000" transform="matrix(1,0,0,1,222.5,268)" display="none"><g ></g><g ></g><g ></g><g ></g></g><image  id="v-3521"></image></g></g><!--z-index:61--><g   id="j_246"  transform="translate(5699,1203)" style=""><g  id="v-3531" style="opacity: 1;"><rect  id="v-3532" rx="1" ry="1" stroke-width="2" pointer-events="visiblePainted" fill="#85bbf0" stroke="#78a8d8" stroke-dasharray="" width="450" height="300"></rect><text  id="v-3533" font-size="33.599999999999994px" xml:space="preserve" y="76.82000000000001" font-weight="bold" text-anchor="middle" pointer-events="visible" font-family="Open Sans, Tahoma, Arial" fill="#000000" dominant-baseline="hanging" transform="matrix(1,0,0,1,225,0)"><tspan dy="0" >Repositorio de catálogo</tspan></text><text  id="v-3534" font-size="16.799999999999997px" xml:space="preserve" y="118.42" text-anchor="middle" font-family="Open Sans, Tahoma, Arial" fill="#000000" dominant-baseline="hanging" transform="matrix(1,0,0,1,225,0)" style="display: block;"><tspan dy="0" >[Component: Dart Repository ·</tspan><tspan dy="1.2em" x="0" >features/service_requests/data]</tspan></text><text  id="v-3535" font-size="24px" xml:space="preserve" y="170.38" text-anchor="middle" font-family="Open Sans, Tahoma, Arial" fill="#000000" dominant-baseline="hanging" transform="matrix(1,0,0,1,225,0)" style="display: block;"><tspan dy="0" >Obtiene las categorías activas del</tspan><tspan dy="1.2em" x="0" >tenant para crear la solicitud.</tspan></text><g  id="v-3536" color="#000000" transform="matrix(1,0,0,1,222.5,268)" display="none"><g ></g><g ></g><g ></g><g ></g></g><image  id="v-3537"></image></g></g><!--z-index:62--><g   id="j_247"  transform="translate(5699,1803)" style=""><g  id="v-3547" style="opacity: 1;"><rect  id="v-3548" rx="1" ry="1" stroke-width="2" pointer-events="visiblePainted" fill="#85bbf0" stroke="#78a8d8" stroke-dasharray="" width="450" height="300"></rect><text  id="v-3549" font-size="33.599999999999994px" xml:space="preserve" y="56.66000000000001" font-weight="bold" text-anchor="middle" pointer-events="visible" font-family="Open Sans, Tahoma, Arial" fill="#000000" dominant-baseline="hanging" transform="matrix(1,0,0,1,225,0)"><tspan dy="0" >Repositorio de</tspan><tspan dy="1.2em" x="0" >solicitudes</tspan></text><text  id="v-3550" font-size="16.799999999999997px" xml:space="preserve" y="138.57999999999998" text-anchor="middle" font-family="Open Sans, Tahoma, Arial" fill="#000000" dominant-baseline="hanging" transform="matrix(1,0,0,1,225,0)" style="display: block;"><tspan dy="0" >[Component: Dart Repository ·</tspan><tspan dy="1.2em" x="0" >features/service_requests/data]</tspan></text><text  id="v-3551" font-size="24px" xml:space="preserve" y="190.54000000000002" text-anchor="middle" font-family="Open Sans, Tahoma, Arial" fill="#000000" dominant-baseline="hanging" transform="matrix(1,0,0,1,225,0)" style="display: block;"><tspan dy="0" >Crea la solicitud y consulta su</tspan><tspan dy="1.2em" x="0" >detalle para la confirmación.</tspan></text><g  id="v-3552" color="#000000" transform="matrix(1,0,0,1,222.5,268)" display="none"><g ></g><g ></g><g ></g><g ></g></g><image  id="v-3553"></image></g></g><!--z-index:63--><g   id="j_248"  transform="translate(2699,1793)" style=""><g  id="v-3560" style="opacity: 1;"><rect  id="v-3561" rx="1" ry="1" stroke-width="2" pointer-events="visiblePainted" fill="#85bbf0" stroke="#78a8d8" stroke-dasharray="" width="450" height="300"></rect><text  id="v-3562" font-size="33.599999999999994px" xml:space="preserve" y="43.70000000000002" font-weight="bold" text-anchor="middle" pointer-events="visible" font-family="Open Sans, Tahoma, Arial" fill="#000000" dominant-baseline="hanging" transform="matrix(1,0,0,1,225,0)"><tspan dy="0" >Cliente HTTP</tspan></text><text  id="v-3563" font-size="16.799999999999997px" xml:space="preserve" y="85.30000000000001" text-anchor="middle" font-family="Open Sans, Tahoma, Arial" fill="#000000" dominant-baseline="hanging" transform="matrix(1,0,0,1,225,0)" style="display: block;"><tspan dy="0" >[Component: Dart HTTP Client · core/http]</tspan></text><text  id="v-3564" font-size="24px" xml:space="preserve" y="117.10000000000001" text-anchor="middle" font-family="Open Sans, Tahoma, Arial" fill="#000000" dominant-baseline="hanging" transform="matrix(1,0,0,1,225,0)" style="display: block;"><tspan dy="0" >Adjunta el JWT y X-Correlation-Id,</tspan><tspan dy="1.2em" x="0" >aplica timeouts y traduce</tspan><tspan dy="1.2em" x="0" >respuestas problem+json (400,</tspan><tspan dy="1.2em" x="0" >401, 403, 404, 422) en errores de</tspan><tspan dy="1.2em" x="0" >la app. No envía tenant_id.</tspan></text><g  id="v-3565" color="#000000" transform="matrix(1,0,0,1,222.5,268)" display="none"><g ></g><g ></g><g ></g><g ></g></g><image  id="v-3566"></image></g></g><!--z-index:64--><g   id="j_249"  transform="translate(4949,183)" style=""><g  id="v-3573" style="opacity: 1;"><rect  id="v-3574" rx="1" ry="1" stroke-width="2" pointer-events="visiblePainted" fill="#85bbf0" stroke="#78a8d8" stroke-dasharray="" width="450" height="300"></rect><text  id="v-3575" font-size="33.599999999999994px" xml:space="preserve" y="86.9" font-weight="bold" text-anchor="middle" pointer-events="visible" font-family="Open Sans, Tahoma, Arial" fill="#000000" dominant-baseline="hanging" transform="matrix(1,0,0,1,225,0)"><tspan dy="0" >UI compartida</tspan></text><text  id="v-3576" font-size="16.799999999999997px" xml:space="preserve" y="128.5" text-anchor="middle" font-family="Open Sans, Tahoma, Arial" fill="#000000" dominant-baseline="hanging" transform="matrix(1,0,0,1,225,0)" style="display: block;"><tspan dy="0" >[Component: Flutter Widgets · core/ui]</tspan></text><text  id="v-3577" font-size="24px" xml:space="preserve" y="160.3" text-anchor="middle" font-family="Open Sans, Tahoma, Arial" fill="#000000" dominant-baseline="hanging" transform="matrix(1,0,0,1,225,0)" style="display: block;"><tspan dy="0" >Widgets reutilizables de carga,</tspan><tspan dy="1.2em" x="0" >vacío y error.</tspan></text><g  id="v-3578" color="#000000" transform="matrix(1,0,0,1,222.5,268)" display="none"><g ></g><g ></g><g ></g><g ></g></g><image  id="v-3579"></image></g></g><!--z-index:65--><g   id="j_251" ><path  stroke="#444444" d="M 599 623 L 1199 532" id="v-3605" stroke-width="2" stroke-dasharray="8 8" fill="none" style="opacity: 1;"></path><path  fill="black" stroke="black" d="M 0 0 0 0" transform="matrix(0.9887567633510144,-0.14953281555440018,0.14953281555440018,0.9887567633510144,599,622.760009765625)"></path><path  fill="#444444" stroke="#444444" d="M 20 0 L 0 10 L 20 20 z" id="v-3607" transform="matrix(-0.9887567235279816,0.14953307887624886,-0.14953307887624886,-0.9887567235279816,1200.4953247818546,541.907556270736)" style="opacity: 1;"></path><path  d="M 599 623 L 1199 532" id="v-3606" fill="none" style="cursor: auto; pointer-events: visiblepainted;"></path><g ><g id="v-3599"  label-idx="0" cursor="move" transform="matrix(1,0,0,1,899,577.5)" style="cursor: default; opacity: 1;"><rect joint-selector="rect" id="v-3602" fill="#ffffff" rx="3" ry="3" pointer-events="none" width="136.17022705078125" height="36.34992599487305" transform="matrix(1,0,0,1,-68.1,-18.2)"></rect><text joint-selector="text" id="v-3601" font-size="24px" xml:space="preserve" y="0.8em" fill="#444444" text-anchor="middle" pointer-events="none" font-family="Open Sans, Tahoma, Arial" font-weight="normal" transform="matrix(1,0,0,1,0,-10.1)"><tspan dy="0" >Inicia sesión</tspan></text></g><g id="v-3600"  label-idx="1" cursor="move" transform="matrix(1,0,0,1,889,589.5)" style="cursor: default; opacity: 1;"><rect joint-selector="rect" id="v-3604" fill="#ffffff" rx="3" ry="3"  width="0" height="0" transform="matrix(1,0,0,1,0,0)" display="none"></rect><text joint-selector="text" id="v-3603" fill="#000000" font-size="14" text-anchor="middle" pointer-events="none"></text></g></g><g  display="none" style="display: none;"></g><g  id="v-3609" display="none"><g  id="v-3597"><path  end="source" d="M 26 0 L 0 13 L 26 26 z"></path></g><g  id="v-3598"><path  end="target" d="M 26 0 L 0 13 L 26 26 z"></path></g></g><g  id="v-3608" display="none"><g  id="v-3596" transform="translate(638.5477322187687, 617.0019272801535) "><g  event="remove"><circle r="11"></circle><path transform="scale(.8) translate(-16, -16)" d="M24.778,21.419 19.276,15.917 24.777,10.415 21.949,7.585 16.447,13.087 10.945,7.585 8.117,10.415 13.618,15.917 8.116,21.419 10.946,24.248 16.447,18.746 21.948,24.248z"></path><title>Remove link.</title></g><g  event="link:options"><circle r="11" transform="translate(25)"></circle><path fill="white" transform="scale(.55) translate(29, -16)" d="M31.229,17.736c0.064-0.571,0.104-1.148,0.104-1.736s-0.04-1.166-0.104-1.737l-4.377-1.557c-0.218-0.716-0.504-1.401-0.851-2.05l1.993-4.192c-0.725-0.91-1.549-1.734-2.458-2.459l-4.193,1.994c-0.647-0.347-1.334-0.632-2.049-0.849l-1.558-4.378C17.165,0.708,16.588,0.667,16,0.667s-1.166,0.041-1.737,0.105L12.707,5.15c-0.716,0.217-1.401,0.502-2.05,0.849L6.464,4.005C5.554,4.73,4.73,5.554,4.005,6.464l1.994,4.192c-0.347,0.648-0.632,1.334-0.849,2.05l-4.378,1.557C0.708,14.834,0.667,15.412,0.667,16s0.041,1.165,0.105,1.736l4.378,1.558c0.217,0.715,0.502,1.401,0.849,2.049l-1.994,4.193c0.725,0.909,1.549,1.733,2.459,2.458l4.192-1.993c0.648,0.347,1.334,0.633,2.05,0.851l1.557,4.377c0.571,0.064,1.148,0.104,1.737,0.104c0.588,0,1.165-0.04,1.736-0.104l1.558-4.377c0.715-0.218,1.399-0.504,2.049-0.851l4.193,1.993c0.909-0.725,1.733-1.549,2.458-2.458l-1.993-4.193c0.347-0.647,0.633-1.334,0.851-2.049L31.229,17.736zM16,20.871c-2.69,0-4.872-2.182-4.872-4.871c0-2.69,2.182-4.872,4.872-4.872c2.689,0,4.871,2.182,4.871,4.872C20.871,18.689,18.689,20.871,16,20.871z"></path><title>Link options.</title></g></g></g></g><!--z-index:66--><g   id="j_252" ><path  stroke="#444444" d="M 599 679 L 4199 1139" id="v-3622" stroke-width="2" stroke-dasharray="8 8" fill="none" style="opacity: 1;"></path><path  fill="black" stroke="black" d="M 0 0 0 0" transform="matrix(0.991913553341501,0.12691533673058278,-0.12691533673058278,0.991913553341501,599,678.5900268554688)"></path><path  fill="#444444" stroke="#444444" d="M 20 0 L 0 10 L 20 20 z" id="v-3624" transform="matrix(-0.9919135438353611,-0.12691541102630166,0.12691541102630166,-0.9919135438353611,4197.731036015591,1149.129085447054)" style="opacity: 1;"></path><path  d="M 599 679 L 4199 1139" id="v-3623" fill="none" style="cursor: auto; pointer-events: visiblepainted;"></path><g ><g id="v-3616"  label-idx="0" cursor="move" transform="matrix(1,0,0,1,2399,909)" style="cursor: default; opacity: 1;"><rect joint-selector="rect" id="v-3619" fill="#ffffff" rx="3" ry="3" pointer-events="none" width="179.83273315429688" height="180.34991455078125" transform="matrix(1,0,0,1,-89.9,-90.2)"></rect><text joint-selector="text" id="v-3618" font-size="24px" xml:space="preserve" y="0.8em" fill="#444444" text-anchor="middle" pointer-events="none" font-family="Open Sans, Tahoma, Arial" font-weight="normal" transform="matrix(1,0,0,1,0,-82.1)"><tspan dy="0" >Crea una</tspan><tspan dy="1.2em" x="0" >solicitud de</tspan><tspan dy="1.2em" x="0" >servicio (el</tspan><tspan dy="1.2em" x="0" >contrato v1 solo</tspan><tspan dy="1.2em" x="0" >admite el rol</tspan><tspan dy="1.2em" x="0" >cliente)</tspan></text></g><g id="v-3617"  label-idx="1" cursor="move" transform="matrix(1,0,0,1,2389,993)" style="cursor: default; opacity: 1;"><rect joint-selector="rect" id="v-3621" fill="#ffffff" rx="3" ry="3"  width="0" height="0" transform="matrix(1,0,0,1,0,0)" display="none"></rect><text joint-selector="text" id="v-3620" fill="#000000" font-size="14" text-anchor="middle" pointer-events="none"></text></g></g><g  display="none" style="display: none;"></g><g  id="v-3626" display="none"><g  id="v-3614"><path  end="source" d="M 26 0 L 0 13 L 26 26 z"></path></g><g  id="v-3615"><path  end="target" d="M 26 0 L 0 13 L 26 26 z"></path></g></g><g  id="v-3625" display="none"><g  id="v-3613" transform="translate(638.6774017932686, 684.0698902291399) "><g  event="remove"><circle r="11"></circle><path transform="scale(.8) translate(-16, -16)" d="M24.778,21.419 19.276,15.917 24.777,10.415 21.949,7.585 16.447,13.087 10.945,7.585 8.117,10.415 13.618,15.917 8.116,21.419 10.946,24.248 16.447,18.746 21.948,24.248z"></path><title>Remove link.</title></g><g  event="link:options"><circle r="11" transform="translate(25)"></circle><path fill="white" transform="scale(.55) translate(29, -16)" d="M31.229,17.736c0.064-0.571,0.104-1.148,0.104-1.736s-0.04-1.166-0.104-1.737l-4.377-1.557c-0.218-0.716-0.504-1.401-0.851-2.05l1.993-4.192c-0.725-0.91-1.549-1.734-2.458-2.459l-4.193,1.994c-0.647-0.347-1.334-0.632-2.049-0.849l-1.558-4.378C17.165,0.708,16.588,0.667,16,0.667s-1.166,0.041-1.737,0.105L12.707,5.15c-0.716,0.217-1.401,0.502-2.05,0.849L6.464,4.005C5.554,4.73,4.73,5.554,4.005,6.464l1.994,4.192c-0.347,0.648-0.632,1.334-0.849,2.05l-4.378,1.557C0.708,14.834,0.667,15.412,0.667,16s0.041,1.165,0.105,1.736l4.378,1.558c0.217,0.715,0.502,1.401,0.849,2.049l-1.994,4.193c0.725,0.909,1.549,1.733,2.459,2.458l4.192-1.993c0.648,0.347,1.334,0.633,2.05,0.851l1.557,4.377c0.571,0.064,1.148,0.104,1.737,0.104c0.588,0,1.165-0.04,1.736-0.104l1.558-4.377c0.715-0.218,1.399-0.504,2.049-0.851l4.193,1.993c0.909-0.725,1.733-1.549,2.458-2.458l-1.993-4.193c0.347-0.647,0.633-1.334,0.851-2.049L31.229,17.736zM16,20.871c-2.69,0-4.872-2.182-4.872-4.871c0-2.69,2.182-4.872,4.872-4.872c2.689,0,4.871,2.182,4.871,4.872C20.871,18.689,18.689,20.871,16,20.871z"></path><title>Link options.</title></g></g></g></g><!--z-index:67--><g   id="j_253" ><path  stroke="#444444" d="M 599 1186 L 1244 648" id="v-3639" stroke-width="2" stroke-dasharray="8 8" fill="none" style="opacity: 1;"></path><path  fill="black" stroke="black" d="M 0 0 0 0" transform="matrix(0.7679166791895562,-0.6405497434411196,0.6405497434411196,0.7679166791895562,599,1186.1700439453125)"></path><path  fill="#444444" stroke="#444444" d="M 20 0 L 0 10 L 20 20 z" id="v-3641" transform="matrix(-0.7679168497782441,0.640549538932515,-0.640549538932515,-0.7679168497782441,1250.5855183792949,655.6791906865824)" style="opacity: 1;"></path><path  d="M 599 1186 L 1244 648" id="v-3640" fill="none" style="cursor: auto; pointer-events: visiblepainted;"></path><g ><g id="v-3633"  label-idx="0" cursor="move" transform="matrix(1,0,0,1,921.5,917)" style="cursor: default; opacity: 1;"><rect joint-selector="rect" id="v-3636" fill="#ffffff" rx="3" ry="3" pointer-events="none" width="136.17022705078125" height="36.34992599487305" transform="matrix(1,0,0,1,-68.1,-18.2)"></rect><text joint-selector="text" id="v-3635" font-size="24px" xml:space="preserve" y="0.8em" fill="#444444" text-anchor="middle" pointer-events="none" font-family="Open Sans, Tahoma, Arial" font-weight="normal" transform="matrix(1,0,0,1,0,-10.1)"><tspan dy="0" >Inicia sesión</tspan></text></g><g id="v-3634"  label-idx="1" cursor="move" transform="matrix(1,0,0,1,911.5,929)" style="cursor: default; opacity: 1;"><rect joint-selector="rect" id="v-3638" fill="#ffffff" rx="3" ry="3"  width="0" height="0" transform="matrix(1,0,0,1,0,0)" display="none"></rect><text joint-selector="text" id="v-3637" fill="#000000" font-size="14" text-anchor="middle" pointer-events="none"></text></g></g><g  display="none" style="display: none;"></g><g  id="v-3643" display="none"><g  id="v-3631"><path  end="source" d="M 26 0 L 0 13 L 26 26 z"></path></g><g  id="v-3632"><path  end="target" d="M 26 0 L 0 13 L 26 26 z"></path></g></g><g  id="v-3642" display="none"><g  id="v-3630" transform="translate(629.7171372815833, 1160.378573864354) "><g  event="remove"><circle r="11"></circle><path transform="scale(.8) translate(-16, -16)" d="M24.778,21.419 19.276,15.917 24.777,10.415 21.949,7.585 16.447,13.087 10.945,7.585 8.117,10.415 13.618,15.917 8.116,21.419 10.946,24.248 16.447,18.746 21.948,24.248z"></path><title>Remove link.</title></g><g  event="link:options"><circle r="11" transform="translate(25)"></circle><path fill="white" transform="scale(.55) translate(29, -16)" d="M31.229,17.736c0.064-0.571,0.104-1.148,0.104-1.736s-0.04-1.166-0.104-1.737l-4.377-1.557c-0.218-0.716-0.504-1.401-0.851-2.05l1.993-4.192c-0.725-0.91-1.549-1.734-2.458-2.459l-4.193,1.994c-0.647-0.347-1.334-0.632-2.049-0.849l-1.558-4.378C17.165,0.708,16.588,0.667,16,0.667s-1.166,0.041-1.737,0.105L12.707,5.15c-0.716,0.217-1.401,0.502-2.05,0.849L6.464,4.005C5.554,4.73,4.73,5.554,4.005,6.464l1.994,4.192c-0.347,0.648-0.632,1.334-0.849,2.05l-4.378,1.557C0.708,14.834,0.667,15.412,0.667,16s0.041,1.165,0.105,1.736l4.378,1.558c0.217,0.715,0.502,1.401,0.849,2.049l-1.994,4.193c0.725,0.909,1.549,1.733,2.459,2.458l4.192-1.993c0.648,0.347,1.334,0.633,2.05,0.851l1.557,4.377c0.571,0.064,1.148,0.104,1.737,0.104c0.588,0,1.165-0.04,1.736-0.104l1.558-4.377c0.715-0.218,1.399-0.504,2.049-0.851l4.193,1.993c0.909-0.725,1.733-1.549,2.458-2.458l-1.993-4.193c0.347-0.647,0.633-1.334,0.851-2.049L31.229,17.736zM16,20.871c-2.69,0-4.872-2.182-4.872-4.871c0-2.69,2.182-4.872,4.872-4.872c2.689,0,4.871,2.182,4.871,4.872C20.871,18.689,18.689,20.871,16,20.871z"></path><title>Link options.</title></g></g></g></g><!--z-index:68--><g   id="j_254" ><path  stroke="#444444" d="M 3449 1241 L 1649 581" id="v-3656" stroke-width="2" stroke-dasharray="8 8" fill="none" style="opacity: 1;"></path><path  fill="black" stroke="black" d="M 0 0 0 0" transform="matrix(-0.938876295851991,-0.3442547037982846,0.3442547037982846,-0.938876295851991,3449,1240.5)"></path><path  fill="#444444" stroke="#444444" d="M 20 0 L 0 10 L 20 20 z" id="v-3658" transform="matrix(0.9388763187721323,0.3442546412888132,-0.3442546412888132,0.9388763187721323,1652.4425771704796,571.1112563173594)" style="opacity: 1;"></path><path  d="M 3449 1241 L 1649 581" id="v-3657" fill="none" style="cursor: auto; pointer-events: visiblepainted;"></path><g ><g id="v-3650"  label-idx="0" cursor="move" transform="matrix(1,0,0,1,2549,911)" style="cursor: default; opacity: 1;"><rect joint-selector="rect" id="v-3653" fill="#ffffff" rx="3" ry="3" pointer-events="none" width="198.37730407714844" height="65.1499252319336" transform="matrix(1,0,0,1,-98.4,-32.6)"></rect><text joint-selector="text" id="v-3652" font-size="24px" xml:space="preserve" y="0.8em" fill="#444444" text-anchor="middle" pointer-events="none" font-family="Open Sans, Tahoma, Arial" font-weight="normal" transform="matrix(1,0,0,1,0,-24.5)"><tspan dy="0" >Redirige si no hay</tspan><tspan dy="1.2em" x="0" >sesión</tspan></text></g><g id="v-3651"  label-idx="1" cursor="move" transform="matrix(1,0,0,1,2539,937.4000244140625)" style="cursor: default; opacity: 1;"><rect joint-selector="rect" id="v-3655" fill="#ffffff" rx="3" ry="3"  width="0" height="0" transform="matrix(1,0,0,1,0,0)" display="none"></rect><text joint-selector="text" id="v-3654" fill="#000000" font-size="14" text-anchor="middle" pointer-events="none"></text></g></g><g  display="none" style="display: none;"></g><g  id="v-3660" display="none"><g  id="v-3648"><path  end="source" d="M 26 0 L 0 13 L 26 26 z"></path></g><g  id="v-3649"><path  end="target" d="M 26 0 L 0 13 L 26 26 z"></path></g></g><g  id="v-3659" display="none"><g  id="v-3647" transform="translate(3411.4449473645354, 1227.2298140336632) "><g  event="remove"><circle r="11"></circle><path transform="scale(.8) translate(-16, -16)" d="M24.778,21.419 19.276,15.917 24.777,10.415 21.949,7.585 16.447,13.087 10.945,7.585 8.117,10.415 13.618,15.917 8.116,21.419 10.946,24.248 16.447,18.746 21.948,24.248z"></path><title>Remove link.</title></g><g  event="link:options"><circle r="11" transform="translate(25)"></circle><path fill="white" transform="scale(.55) translate(29, -16)" d="M31.229,17.736c0.064-0.571,0.104-1.148,0.104-1.736s-0.04-1.166-0.104-1.737l-4.377-1.557c-0.218-0.716-0.504-1.401-0.851-2.05l1.993-4.192c-0.725-0.91-1.549-1.734-2.458-2.459l-4.193,1.994c-0.647-0.347-1.334-0.632-2.049-0.849l-1.558-4.378C17.165,0.708,16.588,0.667,16,0.667s-1.166,0.041-1.737,0.105L12.707,5.15c-0.716,0.217-1.401,0.502-2.05,0.849L6.464,4.005C5.554,4.73,4.73,5.554,4.005,6.464l1.994,4.192c-0.347,0.648-0.632,1.334-0.849,2.05l-4.378,1.557C0.708,14.834,0.667,15.412,0.667,16s0.041,1.165,0.105,1.736l4.378,1.558c0.217,0.715,0.502,1.401,0.849,2.049l-1.994,4.193c0.725,0.909,1.549,1.733,2.459,2.458l4.192-1.993c0.648,0.347,1.334,0.633,2.05,0.851l1.557,4.377c0.571,0.064,1.148,0.104,1.737,0.104c0.588,0,1.165-0.04,1.736-0.104l1.558-4.377c0.715-0.218,1.399-0.504,2.049-0.851l4.193,1.993c0.909-0.725,1.733-1.549,2.458-2.458l-1.993-4.193c0.347-0.647,0.633-1.334,0.851-2.049L31.229,17.736zM16,20.871c-2.69,0-4.872-2.182-4.872-4.871c0-2.69,2.182-4.872,4.872-4.872c2.689,0,4.871,2.182,4.871,4.872C20.871,18.689,18.689,20.871,16,20.871z"></path><title>Link options.</title></g></g></g></g><!--z-index:69--><g   id="j_255" ><path  stroke="#444444" d="M 3899 1277 L 4199 1215" id="v-3673" stroke-width="2" stroke-dasharray="8 8" fill="none" style="opacity: 1;"></path><path  fill="black" stroke="black" d="M 0 0 0 0" transform="matrix(0.9793050990645935,-0.202389532698919,0.202389532698919,0.9793050990645935,3899,1276.5)"></path><path  fill="#444444" stroke="#444444" d="M 20 0 L 0 10 L 20 20 z" id="v-3675" transform="matrix(-0.979305045164966,0.20238979350363492,-0.20238979350363492,-0.979305045164966,4201.023979636686,1224.2930782978633)" style="opacity: 1;"></path><path  d="M 3899 1277 L 4199 1215" id="v-3674" fill="none" style="cursor: auto; pointer-events: visiblepainted;"></path><g ><g id="v-3667"  label-idx="0" cursor="move" transform="matrix(1,0,0,1,4049,1246)" style="cursor: default; opacity: 1;"><rect joint-selector="rect" id="v-3670" fill="#ffffff" rx="3" ry="3" pointer-events="none" width="189.8026123046875" height="65.1499252319336" transform="matrix(1,0,0,1,-93.8,-32.6)"></rect><text joint-selector="text" id="v-3669" font-size="24px" xml:space="preserve" y="0.8em" fill="#444444" text-anchor="middle" pointer-events="none" font-family="Open Sans, Tahoma, Arial" font-weight="normal" transform="matrix(1,0,0,1,0,-24.5)"><tspan dy="0" >Navega entre los</tspan><tspan dy="1.2em" x="0" >pasos de</tspan></text></g><g id="v-3668"  label-idx="1" cursor="move" transform="matrix(1,0,0,1,4039,1272.4000244140625)" style="cursor: default; opacity: 1;"><rect joint-selector="rect" id="v-3672" fill="#ffffff" rx="3" ry="3"  width="0" height="0" transform="matrix(1,0,0,1,0,0)" display="none"></rect><text joint-selector="text" id="v-3671" fill="#000000" font-size="14" text-anchor="middle" pointer-events="none"></text></g></g><g  display="none" style="display: none;"></g><g  id="v-3677" display="none"><g  id="v-3665"><path  end="source" d="M 26 0 L 0 13 L 26 26 z"></path></g><g  id="v-3666"><path  end="target" d="M 26 0 L 0 13 L 26 26 z"></path></g></g><g  id="v-3676" display="none"><g  id="v-3664" transform="translate(3938.1722024738992, 1268.9044114887276) "><g  event="remove"><circle r="11"></circle><path transform="scale(.8) translate(-16, -16)" d="M24.778,21.419 19.276,15.917 24.777,10.415 21.949,7.585 16.447,13.087 10.945,7.585 8.117,10.415 13.618,15.917 8.116,21.419 10.946,24.248 16.447,18.746 21.948,24.248z"></path><title>Remove link.</title></g><g  event="link:options"><circle r="11" transform="translate(25)"></circle><path fill="white" transform="scale(.55) translate(29, -16)" d="M31.229,17.736c0.064-0.571,0.104-1.148,0.104-1.736s-0.04-1.166-0.104-1.737l-4.377-1.557c-0.218-0.716-0.504-1.401-0.851-2.05l1.993-4.192c-0.725-0.91-1.549-1.734-2.458-2.459l-4.193,1.994c-0.647-0.347-1.334-0.632-2.049-0.849l-1.558-4.378C17.165,0.708,16.588,0.667,16,0.667s-1.166,0.041-1.737,0.105L12.707,5.15c-0.716,0.217-1.401,0.502-2.05,0.849L6.464,4.005C5.554,4.73,4.73,5.554,4.005,6.464l1.994,4.192c-0.347,0.648-0.632,1.334-0.849,2.05l-4.378,1.557C0.708,14.834,0.667,15.412,0.667,16s0.041,1.165,0.105,1.736l4.378,1.558c0.217,0.715,0.502,1.401,0.849,2.049l-1.994,4.193c0.725,0.909,1.549,1.733,2.459,2.458l4.192-1.993c0.648,0.347,1.334,0.633,2.05,0.851l1.557,4.377c0.571,0.064,1.148,0.104,1.737,0.104c0.588,0,1.165-0.04,1.736-0.104l1.558-4.377c0.715-0.218,1.399-0.504,2.049-0.851l4.193,1.993c0.909-0.725,1.733-1.549,2.458-2.458l-1.993-4.193c0.347-0.647,0.633-1.334,0.851-2.049L31.229,17.736zM16,20.871c-2.69,0-4.872-2.182-4.872-4.871c0-2.69,2.182-4.872,4.872-4.872c2.689,0,4.871,2.182,4.871,4.872C20.871,18.689,18.689,20.871,16,20.871z"></path><title>Link options.</title></g></g></g></g><!--z-index:70--><g   id="j_256" ><path  stroke="#444444" d="M 1649 498 L 1949 498" id="v-3690" stroke-width="2" stroke-dasharray="8 8" fill="none" style="opacity: 1;"></path><path  fill="black" stroke="black" d="M 0 0 0 0" transform="matrix(1,0,0,1,1649,498)"></path><path  fill="#444444" stroke="#444444" d="M 20 0 L 0 10 L 20 20 z" id="v-3692" transform="matrix(-1,1.2246467991473532e-16,-1.2246467991473532e-16,-1,1948.9999999999998,507.9999999999999)" style="opacity: 1;"></path><path  d="M 1649 498 L 1949 498" id="v-3691" fill="none" style="cursor: auto; pointer-events: visiblepainted;"></path><g ><g id="v-3684"  label-idx="0" cursor="move" transform="matrix(1,0,0,1,1799,498)" style="cursor: default; opacity: 1;"><rect joint-selector="rect" id="v-3687" fill="#ffffff" rx="3" ry="3" pointer-events="none" width="159.33363342285156" height="65.1499252319336" transform="matrix(1,0,0,1,-79.6,-32.6)"></rect><text joint-selector="text" id="v-3686" font-size="24px" xml:space="preserve" y="0.8em" fill="#444444" text-anchor="middle" pointer-events="none" font-family="Open Sans, Tahoma, Arial" font-weight="normal" transform="matrix(1,0,0,1,0,-24.5)"><tspan dy="0" >Envía las</tspan><tspan dy="1.2em" x="0" >credenciales a</tspan></text></g><g id="v-3685"  label-idx="1" cursor="move" transform="matrix(1,0,0,1,1789,524.4000244140625)" style="cursor: default; opacity: 1;"><rect joint-selector="rect" id="v-3689" fill="#ffffff" rx="3" ry="3"  width="0" height="0" transform="matrix(1,0,0,1,0,0)" display="none"></rect><text joint-selector="text" id="v-3688" fill="#000000" font-size="14" text-anchor="middle" pointer-events="none"></text></g></g><g  display="none" style="display: none;"></g><g  id="v-3694" display="none"><g  id="v-3682"><path  end="source" d="M 26 0 L 0 13 L 26 26 z"></path></g><g  id="v-3683"><path  end="target" d="M 26 0 L 0 13 L 26 26 z"></path></g></g><g  id="v-3693" display="none"><g  id="v-3681" transform="translate(1689, 498) "><g  event="remove"><circle r="11"></circle><path transform="scale(.8) translate(-16, -16)" d="M24.778,21.419 19.276,15.917 24.777,10.415 21.949,7.585 16.447,13.087 10.945,7.585 8.117,10.415 13.618,15.917 8.116,21.419 10.946,24.248 16.447,18.746 21.948,24.248z"></path><title>Remove link.</title></g><g  event="link:options"><circle r="11" transform="translate(25)"></circle><path fill="white" transform="scale(.55) translate(29, -16)" d="M31.229,17.736c0.064-0.571,0.104-1.148,0.104-1.736s-0.04-1.166-0.104-1.737l-4.377-1.557c-0.218-0.716-0.504-1.401-0.851-2.05l1.993-4.192c-0.725-0.91-1.549-1.734-2.458-2.459l-4.193,1.994c-0.647-0.347-1.334-0.632-2.049-0.849l-1.558-4.378C17.165,0.708,16.588,0.667,16,0.667s-1.166,0.041-1.737,0.105L12.707,5.15c-0.716,0.217-1.401,0.502-2.05,0.849L6.464,4.005C5.554,4.73,4.73,5.554,4.005,6.464l1.994,4.192c-0.347,0.648-0.632,1.334-0.849,2.05l-4.378,1.557C0.708,14.834,0.667,15.412,0.667,16s0.041,1.165,0.105,1.736l4.378,1.558c0.217,0.715,0.502,1.401,0.849,2.049l-1.994,4.193c0.725,0.909,1.549,1.733,2.459,2.458l4.192-1.993c0.648,0.347,1.334,0.633,2.05,0.851l1.557,4.377c0.571,0.064,1.148,0.104,1.737,0.104c0.588,0,1.165-0.04,1.736-0.104l1.558-4.377c0.715-0.218,1.399-0.504,2.049-0.851l4.193,1.993c0.909-0.725,1.733-1.549,2.458-2.458l-1.993-4.193c0.347-0.647,0.633-1.334,0.851-2.049L31.229,17.736zM16,20.871c-2.69,0-4.872-2.182-4.872-4.871c0-2.69,2.182-4.872,4.872-4.872c2.689,0,4.871,2.182,4.871,4.872C20.871,18.689,18.689,20.871,16,20.871z"></path><title>Link options.</title></g></g></g></g><!--z-index:71--><g   id="j_257" ><path  stroke="#444444" d="M 1649 488 L 4949 343" id="v-3707" stroke-width="2" stroke-dasharray="8 8" fill="none" style="opacity: 1;"></path><path  fill="black" stroke="black" d="M 0 0 0 0" transform="matrix(0.9990334114268898,-0.043957284410556706,0.043957284410556706,0.9990334114268898,1649,488.1000061035156)"></path><path  fill="#444444" stroke="#444444" d="M 20 0 L 0 10 L 20 20 z" id="v-3709" transform="matrix(-0.9990333997203216,0.04395755046924563,-0.04395755046924563,-0.9990333997203216,4949.439675126895,352.89032758430756)" style="opacity: 1;"></path><path  d="M 1649 488 L 4949 343" id="v-3708" fill="none" style="cursor: auto; pointer-events: visiblepainted;"></path><g ><g id="v-3701"  label-idx="0" cursor="move" transform="matrix(1,0,0,1,3299,415.5)" style="cursor: default; opacity: 1;"><rect joint-selector="rect" id="v-3704" fill="#ffffff" rx="3" ry="3" pointer-events="none" width="188.64276123046875" height="65.1499252319336" transform="matrix(1,0,0,1,-93.3,-32.6)"></rect><text joint-selector="text" id="v-3703" font-size="24px" xml:space="preserve" y="0.8em" fill="#444444" text-anchor="middle" pointer-events="none" font-family="Open Sans, Tahoma, Arial" font-weight="normal" transform="matrix(1,0,0,1,0,-24.5)"><tspan dy="0" >Muestra estados</tspan><tspan dy="1.2em" x="0" >con</tspan></text></g><g id="v-3702"  label-idx="1" cursor="move" transform="matrix(1,0,0,1,3289,441.8999938964844)" style="cursor: default; opacity: 1;"><rect joint-selector="rect" id="v-3706" fill="#ffffff" rx="3" ry="3"  width="0" height="0" transform="matrix(1,0,0,1,0,0)" display="none"></rect><text joint-selector="text" id="v-3705" fill="#000000" font-size="14" text-anchor="middle" pointer-events="none"></text></g></g><g  display="none" style="display: none;"></g><g  id="v-3711" display="none"><g  id="v-3699"><path  end="source" d="M 26 0 L 0 13 L 26 26 z"></path></g><g  id="v-3700"><path  end="target" d="M 26 0 L 0 13 L 26 26 z"></path></g></g><g  id="v-3710" display="none"><g  id="v-3698" transform="translate(1688.961442415719, 486.2441184393093) "><g  event="remove"><circle r="11"></circle><path transform="scale(.8) translate(-16, -16)" d="M24.778,21.419 19.276,15.917 24.777,10.415 21.949,7.585 16.447,13.087 10.945,7.585 8.117,10.415 13.618,15.917 8.116,21.419 10.946,24.248 16.447,18.746 21.948,24.248z"></path><title>Remove link.</title></g><g  event="link:options"><circle r="11" transform="translate(25)"></circle><path fill="white" transform="scale(.55) translate(29, -16)" d="M31.229,17.736c0.064-0.571,0.104-1.148,0.104-1.736s-0.04-1.166-0.104-1.737l-4.377-1.557c-0.218-0.716-0.504-1.401-0.851-2.05l1.993-4.192c-0.725-0.91-1.549-1.734-2.458-2.459l-4.193,1.994c-0.647-0.347-1.334-0.632-2.049-0.849l-1.558-4.378C17.165,0.708,16.588,0.667,16,0.667s-1.166,0.041-1.737,0.105L12.707,5.15c-0.716,0.217-1.401,0.502-2.05,0.849L6.464,4.005C5.554,4.73,4.73,5.554,4.005,6.464l1.994,4.192c-0.347,0.648-0.632,1.334-0.849,2.05l-4.378,1.557C0.708,14.834,0.667,15.412,0.667,16s0.041,1.165,0.105,1.736l4.378,1.558c0.217,0.715,0.502,1.401,0.849,2.049l-1.994,4.193c0.725,0.909,1.549,1.733,2.459,2.458l4.192-1.993c0.648,0.347,1.334,0.633,2.05,0.851l1.557,4.377c0.571,0.064,1.148,0.104,1.737,0.104c0.588,0,1.165-0.04,1.736-0.104l1.558-4.377c0.715-0.218,1.399-0.504,2.049-0.851l4.193,1.993c0.909-0.725,1.733-1.549,2.458-2.458l-1.993-4.193c0.347-0.647,0.633-1.334,0.851-2.049L31.229,17.736zM16,20.871c-2.69,0-4.872-2.182-4.872-4.871c0-2.69,2.182-4.872,4.872-4.872c2.689,0,4.871,2.182,4.871,4.872C20.871,18.689,18.689,20.871,16,20.871z"></path><title>Link options.</title></g></g></g></g><!--z-index:72--><g   id="j_258" ><path  stroke="#444444" d="M 4649 1177 L 4949 1189" id="v-3724" stroke-width="2" stroke-dasharray="8 8" fill="none" style="opacity: 1;"></path><path  fill="black" stroke="black" d="M 0 0 0 0" transform="matrix(0.999200958699217,0.03996803891318126,-0.03996803891318126,0.999200958699217,4649,1177)"></path><path  fill="#444444" stroke="#444444" d="M 20 0 L 0 10 L 20 20 z" id="v-3726" transform="matrix(-0.9992009631897042,-0.03996792665084638,0.03996792665084638,-0.9992009631897042,4948.600142865388,1198.9920306952804)" style="opacity: 1;"></path><path  d="M 4649 1177 L 4949 1189" id="v-3725" fill="none" style="cursor: auto; pointer-events: visiblepainted;"></path><g ><g id="v-3718"  label-idx="0" cursor="move" transform="matrix(1,0,0,1,4799,1183)" style="cursor: default; opacity: 1;"><rect joint-selector="rect" id="v-3721" fill="#ffffff" rx="3" ry="3" pointer-events="none" width="162.3558807373047" height="36.34992599487305" transform="matrix(1,0,0,1,-81,-18.2)"></rect><text joint-selector="text" id="v-3720" font-size="24px" xml:space="preserve" y="0.8em" fill="#444444" text-anchor="middle" pointer-events="none" font-family="Open Sans, Tahoma, Arial" font-weight="normal" transform="matrix(1,0,0,1,0,-10.1)"><tspan dy="0" >Lee y actualiza</tspan></text></g><g id="v-3719"  label-idx="1" cursor="move" transform="matrix(1,0,0,1,4789,1195)" style="cursor: default; opacity: 1;"><rect joint-selector="rect" id="v-3723" fill="#ffffff" rx="3" ry="3"  width="0" height="0" transform="matrix(1,0,0,1,0,0)" display="none"></rect><text joint-selector="text" id="v-3722" fill="#000000" font-size="14" text-anchor="middle" pointer-events="none"></text></g></g><g  display="none" style="display: none;"></g><g  id="v-3728" display="none"><g  id="v-3716"><path  end="source" d="M 26 0 L 0 13 L 26 26 z"></path></g><g  id="v-3717"><path  end="target" d="M 26 0 L 0 13 L 26 26 z"></path></g></g><g  id="v-3727" display="none"><g  id="v-3715" transform="translate(4688.968038348871, 1178.5987215339549) "><g  event="remove"><circle r="11"></circle><path transform="scale(.8) translate(-16, -16)" d="M24.778,21.419 19.276,15.917 24.777,10.415 21.949,7.585 16.447,13.087 10.945,7.585 8.117,10.415 13.618,15.917 8.116,21.419 10.946,24.248 16.447,18.746 21.948,24.248z"></path><title>Remove link.</title></g><g  event="link:options"><circle r="11" transform="translate(25)"></circle><path fill="white" transform="scale(.55) translate(29, -16)" d="M31.229,17.736c0.064-0.571,0.104-1.148,0.104-1.736s-0.04-1.166-0.104-1.737l-4.377-1.557c-0.218-0.716-0.504-1.401-0.851-2.05l1.993-4.192c-0.725-0.91-1.549-1.734-2.458-2.459l-4.193,1.994c-0.647-0.347-1.334-0.632-2.049-0.849l-1.558-4.378C17.165,0.708,16.588,0.667,16,0.667s-1.166,0.041-1.737,0.105L12.707,5.15c-0.716,0.217-1.401,0.502-2.05,0.849L6.464,4.005C5.554,4.73,4.73,5.554,4.005,6.464l1.994,4.192c-0.347,0.648-0.632,1.334-0.849,2.05l-4.378,1.557C0.708,14.834,0.667,15.412,0.667,16s0.041,1.165,0.105,1.736l4.378,1.558c0.217,0.715,0.502,1.401,0.849,2.049l-1.994,4.193c0.725,0.909,1.549,1.733,2.459,2.458l4.192-1.993c0.648,0.347,1.334,0.633,2.05,0.851l1.557,4.377c0.571,0.064,1.148,0.104,1.737,0.104c0.588,0,1.165-0.04,1.736-0.104l1.558-4.377c0.715-0.218,1.399-0.504,2.049-0.851l4.193,1.993c0.909-0.725,1.733-1.549,2.458-2.458l-1.993-4.193c0.347-0.647,0.633-1.334,0.851-2.049L31.229,17.736zM16,20.871c-2.69,0-4.872-2.182-4.872-4.871c0-2.69,2.182-4.872,4.872-4.872c2.689,0,4.871,2.182,4.871,4.872C20.871,18.689,18.689,20.871,16,20.871z"></path><title>Link options.</title></g></g></g></g><!--z-index:73--><g   id="j_259" ><path  stroke="#444444" d="M 4559 1018 L 5039 483" id="v-3741" stroke-width="2" stroke-dasharray="8 8" fill="none" style="opacity: 1;"></path><path  fill="black" stroke="black" d="M 0 0 0 0" transform="matrix(0.6682268445035168,-0.7439575823156,0.7439575823156,0.6682268445035168,4558.72998046875,1018)"></path><path  fill="#444444" stroke="#444444" d="M 20 0 L 0 10 L 20 20 z" id="v-3743" transform="matrix(-0.6682268445035165,0.7439575823156002,-0.7439575823156002,-0.6682268445035165,5046.709734893191,489.68226781719176)" style="opacity: 1;"></path><path  d="M 4559 1018 L 5039 483" id="v-3742" fill="none" style="cursor: auto; pointer-events: visiblepainted;"></path><g ><g id="v-3735"  label-idx="0" cursor="move" transform="matrix(1,0,0,1,4799,750.5)" style="cursor: default; opacity: 1;"><rect joint-selector="rect" id="v-3738" fill="#ffffff" rx="3" ry="3" pointer-events="none" width="188.64276123046875" height="65.1499252319336" transform="matrix(1,0,0,1,-93.3,-32.6)"></rect><text joint-selector="text" id="v-3737" font-size="24px" xml:space="preserve" y="0.8em" fill="#444444" text-anchor="middle" pointer-events="none" font-family="Open Sans, Tahoma, Arial" font-weight="normal" transform="matrix(1,0,0,1,0,-24.5)"><tspan dy="0" >Muestra estados</tspan><tspan dy="1.2em" x="0" >con</tspan></text></g><g id="v-3736"  label-idx="1" cursor="move" transform="matrix(1,0,0,1,4789,776.9000244140625)" style="cursor: default; opacity: 1;"><rect joint-selector="rect" id="v-3740" fill="#ffffff" rx="3" ry="3"  width="0" height="0" transform="matrix(1,0,0,1,0,0)" display="none"></rect><text joint-selector="text" id="v-3739" fill="#000000" font-size="14" text-anchor="middle" pointer-events="none"></text></g></g><g  display="none" style="display: none;"></g><g  id="v-3745" display="none"><g  id="v-3733"><path  end="source" d="M 26 0 L 0 13 L 26 26 z"></path></g><g  id="v-3734"><path  end="target" d="M 26 0 L 0 13 L 26 26 z"></path></g></g><g  id="v-3744" display="none"><g  id="v-3732" transform="translate(4585.712437531919, 988.2267623342151) "><g  event="remove"><circle r="11"></circle><path transform="scale(.8) translate(-16, -16)" d="M24.778,21.419 19.276,15.917 24.777,10.415 21.949,7.585 16.447,13.087 10.945,7.585 8.117,10.415 13.618,15.917 8.116,21.419 10.946,24.248 16.447,18.746 21.948,24.248z"></path><title>Remove link.</title></g><g  event="link:options"><circle r="11" transform="translate(25)"></circle><path fill="white" transform="scale(.55) translate(29, -16)" d="M31.229,17.736c0.064-0.571,0.104-1.148,0.104-1.736s-0.04-1.166-0.104-1.737l-4.377-1.557c-0.218-0.716-0.504-1.401-0.851-2.05l1.993-4.192c-0.725-0.91-1.549-1.734-2.458-2.459l-4.193,1.994c-0.647-0.347-1.334-0.632-2.049-0.849l-1.558-4.378C17.165,0.708,16.588,0.667,16,0.667s-1.166,0.041-1.737,0.105L12.707,5.15c-0.716,0.217-1.401,0.502-2.05,0.849L6.464,4.005C5.554,4.73,4.73,5.554,4.005,6.464l1.994,4.192c-0.347,0.648-0.632,1.334-0.849,2.05l-4.378,1.557C0.708,14.834,0.667,15.412,0.667,16s0.041,1.165,0.105,1.736l4.378,1.558c0.217,0.715,0.502,1.401,0.849,2.049l-1.994,4.193c0.725,0.909,1.549,1.733,2.459,2.458l4.192-1.993c0.648,0.347,1.334,0.633,2.05,0.851l1.557,4.377c0.571,0.064,1.148,0.104,1.737,0.104c0.588,0,1.165-0.04,1.736-0.104l1.558-4.377c0.715-0.218,1.399-0.504,2.049-0.851l4.193,1.993c0.909-0.725,1.733-1.549,2.458-2.458l-1.993-4.193c0.347-0.647,0.633-1.334,0.851-2.049L31.229,17.736zM16,20.871c-2.69,0-4.872-2.182-4.872-4.871c0-2.69,2.182-4.872,4.872-4.872c2.689,0,4.871,2.182,4.871,4.872C20.871,18.689,18.689,20.871,16,20.871z"></path><title>Link options.</title></g></g></g></g><!--z-index:74--><g   id="j_260" ><path  stroke="#444444" d="M 5399 1245 L 5699 1307" id="v-3758" stroke-width="2" stroke-dasharray="8 8" fill="none" style="opacity: 1;"></path><path  fill="black" stroke="black" d="M 0 0 0 0" transform="matrix(0.979305062008607,0.20238971200216255,-0.20238971200216255,0.979305062008607,5399,1244.5)"></path><path  fill="#444444" stroke="#444444" d="M 20 0 L 0 10 L 20 20 z" id="v-3760" transform="matrix(-0.979305045164966,-0.2023897935036347,0.2023897935036347,-0.979305045164966,5696.976183766613,1316.293022605436)" style="opacity: 1;"></path><path  d="M 5399 1245 L 5699 1307" id="v-3759" fill="none" style="cursor: auto; pointer-events: visiblepainted;"></path><g ><g id="v-3752"  label-idx="0" cursor="move" transform="matrix(1,0,0,1,5549,1276)" style="cursor: default; opacity: 1;"><rect joint-selector="rect" id="v-3755" fill="#ffffff" rx="3" ry="3" pointer-events="none" width="149.47010803222656" height="65.1499252319336" transform="matrix(1,0,0,1,-74.7,-32.6)"></rect><text joint-selector="text" id="v-3754" font-size="24px" xml:space="preserve" y="0.8em" fill="#444444" text-anchor="middle" pointer-events="none" font-family="Open Sans, Tahoma, Arial" font-weight="normal" transform="matrix(1,0,0,1,0,-24.5)"><tspan dy="0" >Obtiene</tspan><tspan dy="1.2em" x="0" >categorías de</tspan></text></g><g id="v-3753"  label-idx="1" cursor="move" transform="matrix(1,0,0,1,5539,1302.4000244140625)" style="cursor: default; opacity: 1;"><rect joint-selector="rect" id="v-3757" fill="#ffffff" rx="3" ry="3"  width="0" height="0" transform="matrix(1,0,0,1,0,0)" display="none"></rect><text joint-selector="text" id="v-3756" fill="#000000" font-size="14" text-anchor="middle" pointer-events="none"></text></g></g><g  display="none" style="display: none;"></g><g  id="v-3762" display="none"><g  id="v-3750"><path  end="source" d="M 26 0 L 0 13 L 26 26 z"></path></g><g  id="v-3751"><path  end="target" d="M 26 0 L 0 13 L 26 26 z"></path></g></g><g  id="v-3761" display="none"><g  id="v-3749" transform="translate(5438.172202473899, 1253.0955885112724) "><g  event="remove"><circle r="11"></circle><path transform="scale(.8) translate(-16, -16)" d="M24.778,21.419 19.276,15.917 24.777,10.415 21.949,7.585 16.447,13.087 10.945,7.585 8.117,10.415 13.618,15.917 8.116,21.419 10.946,24.248 16.447,18.746 21.948,24.248z"></path><title>Remove link.</title></g><g  event="link:options"><circle r="11" transform="translate(25)"></circle><path fill="white" transform="scale(.55) translate(29, -16)" d="M31.229,17.736c0.064-0.571,0.104-1.148,0.104-1.736s-0.04-1.166-0.104-1.737l-4.377-1.557c-0.218-0.716-0.504-1.401-0.851-2.05l1.993-4.192c-0.725-0.91-1.549-1.734-2.458-2.459l-4.193,1.994c-0.647-0.347-1.334-0.632-2.049-0.849l-1.558-4.378C17.165,0.708,16.588,0.667,16,0.667s-1.166,0.041-1.737,0.105L12.707,5.15c-0.716,0.217-1.401,0.502-2.05,0.849L6.464,4.005C5.554,4.73,4.73,5.554,4.005,6.464l1.994,4.192c-0.347,0.648-0.632,1.334-0.849,2.05l-4.378,1.557C0.708,14.834,0.667,15.412,0.667,16s0.041,1.165,0.105,1.736l4.378,1.558c0.217,0.715,0.502,1.401,0.849,2.049l-1.994,4.193c0.725,0.909,1.549,1.733,2.459,2.458l4.192-1.993c0.648,0.347,1.334,0.633,2.05,0.851l1.557,4.377c0.571,0.064,1.148,0.104,1.737,0.104c0.588,0,1.165-0.04,1.736-0.104l1.558-4.377c0.715-0.218,1.399-0.504,2.049-0.851l4.193,1.993c0.909-0.725,1.733-1.549,2.458-2.458l-1.993-4.193c0.347-0.647,0.633-1.334,0.851-2.049L31.229,17.736zM16,20.871c-2.69,0-4.872-2.182-4.872-4.871c0-2.69,2.182-4.872,4.872-4.872c2.689,0,4.871,2.182,4.871,4.872C20.871,18.689,18.689,20.871,16,20.871z"></path><title>Link options.</title></g></g></g></g><!--z-index:75--><g   id="j_261" ><path  stroke="#444444" d="M 5323 1348 L 5775 1803" id="v-3775" stroke-width="2" stroke-dasharray="8 8" fill="none" style="opacity: 1;"></path><path  fill="black" stroke="black" d="M 0 0 0 0" transform="matrix(0.7047483765861686,0.7094573459336084,-0.7094573459336084,0.7047483765861686,5323.009765625,1348)"></path><path  fill="#444444" stroke="#444444" d="M 20 0 L 0 10 L 20 20 z" id="v-3777" transform="matrix(-0.7047483765861687,-0.7094573459336084,0.7094573459336084,-0.7047483765861687,5767.895293119025,1810.04745273301)" style="opacity: 1;"></path><path  d="M 5323 1348 L 5775 1803" id="v-3776" fill="none" style="cursor: auto; pointer-events: visiblepainted;"></path><g ><g id="v-3769"  label-idx="0" cursor="move" transform="matrix(1,0,0,1,5549,1575.5)" style="cursor: default; opacity: 1;"><rect joint-selector="rect" id="v-3772" fill="#ffffff" rx="3" ry="3" pointer-events="none" width="184.80245971679688" height="65.1499252319336" transform="matrix(1,0,0,1,-92.4,-32.6)"></rect><text joint-selector="text" id="v-3771" font-size="24px" xml:space="preserve" y="0.8em" fill="#444444" text-anchor="middle" pointer-events="none" font-family="Open Sans, Tahoma, Arial" font-weight="normal" transform="matrix(1,0,0,1,0,-24.5)"><tspan dy="0" >Envía la solicitud</tspan><tspan dy="1.2em" x="0" >confirmada a</tspan></text></g><g id="v-3770"  label-idx="1" cursor="move" transform="matrix(1,0,0,1,5539,1601.9000244140625)" style="cursor: default; opacity: 1;"><rect joint-selector="rect" id="v-3774" fill="#ffffff" rx="3" ry="3"  width="0" height="0" transform="matrix(1,0,0,1,0,0)" display="none"></rect><text joint-selector="text" id="v-3773" fill="#000000" font-size="14" text-anchor="middle" pointer-events="none"></text></g></g><g  display="none" style="display: none;"></g><g  id="v-3779" display="none"><g  id="v-3767"><path  end="source" d="M 26 0 L 0 13 L 26 26 z"></path></g><g  id="v-3768"><path  end="target" d="M 26 0 L 0 13 L 26 26 z"></path></g></g><g  id="v-3778" display="none"><g  id="v-3766" transform="translate(5351.190563774099, 1376.3776692858742) "><g  event="remove"><circle r="11"></circle><path transform="scale(.8) translate(-16, -16)" d="M24.778,21.419 19.276,15.917 24.777,10.415 21.949,7.585 16.447,13.087 10.945,7.585 8.117,10.415 13.618,15.917 8.116,21.419 10.946,24.248 16.447,18.746 21.948,24.248z"></path><title>Remove link.</title></g><g  event="link:options"><circle r="11" transform="translate(25)"></circle><path fill="white" transform="scale(.55) translate(29, -16)" d="M31.229,17.736c0.064-0.571,0.104-1.148,0.104-1.736s-0.04-1.166-0.104-1.737l-4.377-1.557c-0.218-0.716-0.504-1.401-0.851-2.05l1.993-4.192c-0.725-0.91-1.549-1.734-2.458-2.459l-4.193,1.994c-0.647-0.347-1.334-0.632-2.049-0.849l-1.558-4.378C17.165,0.708,16.588,0.667,16,0.667s-1.166,0.041-1.737,0.105L12.707,5.15c-0.716,0.217-1.401,0.502-2.05,0.849L6.464,4.005C5.554,4.73,4.73,5.554,4.005,6.464l1.994,4.192c-0.347,0.648-0.632,1.334-0.849,2.05l-4.378,1.557C0.708,14.834,0.667,15.412,0.667,16s0.041,1.165,0.105,1.736l4.378,1.558c0.217,0.715,0.502,1.401,0.849,2.049l-1.994,4.193c0.725,0.909,1.549,1.733,2.459,2.458l4.192-1.993c0.648,0.347,1.334,0.633,2.05,0.851l1.557,4.377c0.571,0.064,1.148,0.104,1.737,0.104c0.588,0,1.165-0.04,1.736-0.104l1.558-4.377c0.715-0.218,1.399-0.504,2.049-0.851l4.193,1.993c0.909-0.725,1.733-1.549,2.458-2.458l-1.993-4.193c0.347-0.647,0.633-1.334,0.851-2.049L31.229,17.736zM16,20.871c-2.69,0-4.872-2.182-4.872-4.871c0-2.69,2.182-4.872,4.872-4.872c2.689,0,4.871,2.182,4.871,4.872C20.871,18.689,18.689,20.871,16,20.871z"></path><title>Link options.</title></g></g></g></g><!--z-index:76--><g   id="j_262" ><path  stroke="#444444" d="M 2252 648 L 2846 1793" id="v-3792" stroke-width="2" stroke-dasharray="8 8" fill="none" style="opacity: 1;"></path><path  fill="black" stroke="black" d="M 0 0 0 0" transform="matrix(0.46068142711517734,0.8875655596693258,-0.8875655596693258,0.46068142711517734,2251.85009765625,648)"></path><path  fill="#444444" stroke="#444444" d="M 20 0 L 0 10 L 20 20 z" id="v-3794" transform="matrix(-0.46068148620842775,-0.8875655289976027,0.8875655289976027,-0.46068148620842775,2837.274372462733,1797.6068598004977)" style="opacity: 1;"></path><path  d="M 2252 648 L 2846 1793" id="v-3793" fill="none" style="cursor: auto; pointer-events: visiblepainted;"></path><g ><g id="v-3786"  label-idx="0" cursor="move" transform="matrix(1,0,0,1,2549,1220.5)" style="cursor: default; opacity: 1;"><rect joint-selector="rect" id="v-3789" fill="#ffffff" rx="3" ry="3" pointer-events="none" width="182.0336151123047" height="65.1499252319336" transform="matrix(1,0,0,1,-91,-32.6)"></rect><text joint-selector="text" id="v-3788" font-size="24px" xml:space="preserve" y="0.8em" fill="#444444" text-anchor="middle" pointer-events="none" font-family="Open Sans, Tahoma, Arial" font-weight="normal" transform="matrix(1,0,0,1,0,-24.5)"><tspan dy="0" >Entrega el token</tspan><tspan dy="1.2em" x="0" >a</tspan></text></g><g id="v-3787"  label-idx="1" cursor="move" transform="matrix(1,0,0,1,2539,1246.9000244140625)" style="cursor: default; opacity: 1;"><rect joint-selector="rect" id="v-3791" fill="#ffffff" rx="3" ry="3"  width="0" height="0" transform="matrix(1,0,0,1,0,0)" display="none"></rect><text joint-selector="text" id="v-3790" fill="#000000" font-size="14" text-anchor="middle" pointer-events="none"></text></g></g><g  display="none" style="display: none;"></g><g  id="v-3796" display="none"><g  id="v-3784"><path  end="source" d="M 26 0 L 0 13 L 26 26 z"></path></g><g  id="v-3785"><path  end="target" d="M 26 0 L 0 13 L 26 26 z"></path></g></g><g  id="v-3795" display="none"><g  id="v-3783" transform="translate(2270.4199274444863, 683.5064257978731) "><g  event="remove"><circle r="11"></circle><path transform="scale(.8) translate(-16, -16)" d="M24.778,21.419 19.276,15.917 24.777,10.415 21.949,7.585 16.447,13.087 10.945,7.585 8.117,10.415 13.618,15.917 8.116,21.419 10.946,24.248 16.447,18.746 21.948,24.248z"></path><title>Remove link.</title></g><g  event="link:options"><circle r="11" transform="translate(25)"></circle><path fill="white" transform="scale(.55) translate(29, -16)" d="M31.229,17.736c0.064-0.571,0.104-1.148,0.104-1.736s-0.04-1.166-0.104-1.737l-4.377-1.557c-0.218-0.716-0.504-1.401-0.851-2.05l1.993-4.192c-0.725-0.91-1.549-1.734-2.458-2.459l-4.193,1.994c-0.647-0.347-1.334-0.632-2.049-0.849l-1.558-4.378C17.165,0.708,16.588,0.667,16,0.667s-1.166,0.041-1.737,0.105L12.707,5.15c-0.716,0.217-1.401,0.502-2.05,0.849L6.464,4.005C5.554,4.73,4.73,5.554,4.005,6.464l1.994,4.192c-0.347,0.648-0.632,1.334-0.849,2.05l-4.378,1.557C0.708,14.834,0.667,15.412,0.667,16s0.041,1.165,0.105,1.736l4.378,1.558c0.217,0.715,0.502,1.401,0.849,2.049l-1.994,4.193c0.725,0.909,1.549,1.733,2.459,2.458l4.192-1.993c0.648,0.347,1.334,0.633,2.05,0.851l1.557,4.377c0.571,0.064,1.148,0.104,1.737,0.104c0.588,0,1.165-0.04,1.736-0.104l1.558-4.377c0.715-0.218,1.399-0.504,2.049-0.851l4.193,1.993c0.909-0.725,1.733-1.549,2.458-2.458l-1.993-4.193c0.347-0.647,0.633-1.334,0.851-2.049L31.229,17.736zM16,20.871c-2.69,0-4.872-2.182-4.872-4.871c0-2.69,2.182-4.872,4.872-4.872c2.689,0,4.871,2.182,4.871,4.872C20.871,18.689,18.689,20.871,16,20.871z"></path><title>Link options.</title></g></g></g></g><!--z-index:77--><g   id="j_263" ><path  stroke="#444444" d="M 5699 1397 L 3149 1899" id="v-3806" stroke-width="2" stroke-dasharray="8 8" fill="none" style="opacity: 1;"></path><path  fill="black" stroke="black" d="M 0 0 0 0" transform="matrix(-0.9812046101207175,0.19297023883969966,-0.19297023883969966,-0.9812046101207175,5699,1397.25)"></path><path  fill="#444444" stroke="#444444" d="M 20 0 L 0 10 L 20 20 z" id="v-3808" transform="matrix(0.9812045587295996,-0.19297050015028658,0.19297050015028658,0.9812045587295996,3147.070261129951,1888.9379719142069)" style="opacity: 1;"></path><path  d="M 5699 1397 L 3149 1899" id="v-3807" fill="none" style="cursor: auto; pointer-events: visiblepainted;"></path><g ><g id="v-3800"  label-idx="0" cursor="move" transform="matrix(1,0,0,1,4424,1648)" style="cursor: default; opacity: 1;"><rect joint-selector="rect" id="v-3803" fill="#ffffff" rx="3" ry="3" pointer-events="none" width="42.5538215637207" height="36.34992599487305" transform="matrix(1,0,0,1,-21.2,-18.2)"></rect><text joint-selector="text" id="v-3802" font-size="24px" xml:space="preserve" y="0.8em" fill="#444444" text-anchor="middle" pointer-events="none" font-family="Open Sans, Tahoma, Arial" font-weight="normal" transform="matrix(1,0,0,1,0,-10.1)"><tspan dy="0" >Usa</tspan></text></g><g id="v-3801"  label-idx="1" cursor="move" transform="matrix(1,0,0,1,4414,1660)" style="cursor: default; opacity: 1;"><rect joint-selector="rect" id="v-3805" fill="#ffffff" rx="3" ry="3"  width="0" height="0" transform="matrix(1,0,0,1,0,0)" display="none"></rect><text joint-selector="text" id="v-3804" fill="#000000" font-size="14" text-anchor="middle" pointer-events="none"></text></g></g><g  display="none" style="display: none;"></g><g  id="v-3810" display="none"><g  id="v-3798"><path  end="source" d="M 26 0 L 0 13 L 26 26 z"></path></g><g  id="v-3799"><path  end="target" d="M 26 0 L 0 13 L 26 26 z"></path></g></g><g  id="v-3809" display="none"><g  id="v-3797" transform="translate(5659.753273382448, 1404.7262183380435) "><g  event="remove"><circle r="11"></circle><path transform="scale(.8) translate(-16, -16)" d="M24.778,21.419 19.276,15.917 24.777,10.415 21.949,7.585 16.447,13.087 10.945,7.585 8.117,10.415 13.618,15.917 8.116,21.419 10.946,24.248 16.447,18.746 21.948,24.248z"></path><title>Remove link.</title></g><g  event="link:options"><circle r="11" transform="translate(25)"></circle><path fill="white" transform="scale(.55) translate(29, -16)" d="M31.229,17.736c0.064-0.571,0.104-1.148,0.104-1.736s-0.04-1.166-0.104-1.737l-4.377-1.557c-0.218-0.716-0.504-1.401-0.851-2.05l1.993-4.192c-0.725-0.91-1.549-1.734-2.458-2.459l-4.193,1.994c-0.647-0.347-1.334-0.632-2.049-0.849l-1.558-4.378C17.165,0.708,16.588,0.667,16,0.667s-1.166,0.041-1.737,0.105L12.707,5.15c-0.716,0.217-1.401,0.502-2.05,0.849L6.464,4.005C5.554,4.73,4.73,5.554,4.005,6.464l1.994,4.192c-0.347,0.648-0.632,1.334-0.849,2.05l-4.378,1.557C0.708,14.834,0.667,15.412,0.667,16s0.041,1.165,0.105,1.736l4.378,1.558c0.217,0.715,0.502,1.401,0.849,2.049l-1.994,4.193c0.725,0.909,1.549,1.733,2.459,2.458l4.192-1.993c0.648,0.347,1.334,0.633,2.05,0.851l1.557,4.377c0.571,0.064,1.148,0.104,1.737,0.104c0.588,0,1.165-0.04,1.736-0.104l1.558-4.377c0.715-0.218,1.399-0.504,2.049-0.851l4.193,1.993c0.909-0.725,1.733-1.549,2.458-2.458l-1.993-4.193c0.347-0.647,0.633-1.334,0.851-2.049L31.229,17.736zM16,20.871c-2.69,0-4.872-2.182-4.872-4.871c0-2.69,2.182-4.872,4.872-4.872c2.689,0,4.871,2.182,4.871,4.872C20.871,18.689,18.689,20.871,16,20.871z"></path><title>Link options.</title></g></g></g></g><!--z-index:78--><g   id="j_264" ><path  stroke="#444444" d="M 5699 1952 L 3149 1944" id="v-3820" stroke-width="2" stroke-dasharray="8 8" fill="none" style="opacity: 1;"></path><path  fill="black" stroke="black" d="M 0 0 0 0" transform="matrix(-0.9999944448526237,-0.0033332062481786382,0.0033332062481786382,-0.9999944448526237,5699,1952.25)"></path><path  fill="#444444" stroke="#444444" d="M 20 0 L 0 10 L 20 20 z" id="v-3822" transform="matrix(0.9999944444911283,0.0033333146985699406,-0.0033333146985699406,0.9999944444911283,3149.0333887020747,1933.7500476034156)" style="opacity: 1;"></path><path  d="M 5699 1952 L 3149 1944" id="v-3821" fill="none" style="cursor: auto; pointer-events: visiblepainted;"></path><g ><g id="v-3814"  label-idx="0" cursor="move" transform="matrix(1,0,0,1,4424,1948)" style="cursor: default; opacity: 1;"><rect joint-selector="rect" id="v-3817" fill="#ffffff" rx="3" ry="3" pointer-events="none" width="42.5538215637207" height="36.34992599487305" transform="matrix(1,0,0,1,-21.2,-18.2)"></rect><text joint-selector="text" id="v-3816" font-size="24px" xml:space="preserve" y="0.8em" fill="#444444" text-anchor="middle" pointer-events="none" font-family="Open Sans, Tahoma, Arial" font-weight="normal" transform="matrix(1,0,0,1,0,-10.1)"><tspan dy="0" >Usa</tspan></text></g><g id="v-3815"  label-idx="1" cursor="move" transform="matrix(1,0,0,1,4414,1960)" style="cursor: default; opacity: 1;"><rect joint-selector="rect" id="v-3819" fill="#ffffff" rx="3" ry="3"  width="0" height="0" transform="matrix(1,0,0,1,0,0)" display="none"></rect><text joint-selector="text" id="v-3818" fill="#000000" font-size="14" text-anchor="middle" pointer-events="none"></text></g></g><g  display="none" style="display: none;"></g><g  id="v-3824" display="none"><g  id="v-3812"><path  end="source" d="M 26 0 L 0 13 L 26 26 z"></path></g><g  id="v-3813"><path  end="target" d="M 26 0 L 0 13 L 26 26 z"></path></g></g><g  id="v-3823" display="none"><g  id="v-3811" transform="translate(5659.000196845914, 1951.8745104214775) "><g  event="remove"><circle r="11"></circle><path transform="scale(.8) translate(-16, -16)" d="M24.778,21.419 19.276,15.917 24.777,10.415 21.949,7.585 16.447,13.087 10.945,7.585 8.117,10.415 13.618,15.917 8.116,21.419 10.946,24.248 16.447,18.746 21.948,24.248z"></path><title>Remove link.</title></g><g  event="link:options"><circle r="11" transform="translate(25)"></circle><path fill="white" transform="scale(.55) translate(29, -16)" d="M31.229,17.736c0.064-0.571,0.104-1.148,0.104-1.736s-0.04-1.166-0.104-1.737l-4.377-1.557c-0.218-0.716-0.504-1.401-0.851-2.05l1.993-4.192c-0.725-0.91-1.549-1.734-2.458-2.459l-4.193,1.994c-0.647-0.347-1.334-0.632-2.049-0.849l-1.558-4.378C17.165,0.708,16.588,0.667,16,0.667s-1.166,0.041-1.737,0.105L12.707,5.15c-0.716,0.217-1.401,0.502-2.05,0.849L6.464,4.005C5.554,4.73,4.73,5.554,4.005,6.464l1.994,4.192c-0.347,0.648-0.632,1.334-0.849,2.05l-4.378,1.557C0.708,14.834,0.667,15.412,0.667,16s0.041,1.165,0.105,1.736l4.378,1.558c0.217,0.715,0.502,1.401,0.849,2.049l-1.994,4.193c0.725,0.909,1.549,1.733,2.459,2.458l4.192-1.993c0.648,0.347,1.334,0.633,2.05,0.851l1.557,4.377c0.571,0.064,1.148,0.104,1.737,0.104c0.588,0,1.165-0.04,1.736-0.104l1.558-4.377c0.715-0.218,1.399-0.504,2.049-0.851l4.193,1.993c0.909-0.725,1.733-1.549,2.458-2.458l-1.993-4.193c0.347-0.647,0.633-1.334,0.851-2.049L31.229,17.736zM16,20.871c-2.69,0-4.872-2.182-4.872-4.871c0-2.69,2.182-4.872,4.872-4.872c2.689,0,4.871,2.182,4.871,4.872C20.871,18.689,18.689,20.871,16,20.871z"></path><title>Link options.</title></g></g></g></g><!--z-index:79--><g   id="j_265" ><path  stroke="#444444" d="M 3105 1793 L 3493 1473" id="v-3837" stroke-width="2" stroke-dasharray="8 8" fill="none" style="opacity: 1;"></path><path  fill="black" stroke="black" d="M 0 0 0 0" transform="matrix(0.7707450109865838,-0.6371437263595169,0.6371437263595169,0.7707450109865838,3105.449951171875,1793)"></path><path  fill="#444444" stroke="#444444" d="M 20 0 L 0 10 L 20 20 z" id="v-3839" transform="matrix(-0.770744841304918,0.637143931621307,-0.637143931621307,-0.770744841304918,3498.921417026137,1480.7074690577738)" style="opacity: 1;"></path><path  d="M 3105 1793 L 3493 1473" id="v-3838" fill="none" style="cursor: auto; pointer-events: visiblepainted;"></path><g ><g id="v-3831"  label-idx="0" cursor="move" transform="matrix(1,0,0,1,3299,1633)" style="cursor: default; opacity: 1;"><rect joint-selector="rect" id="v-3834" fill="#ffffff" rx="3" ry="3" pointer-events="none" width="171.45521545410156" height="93.94992446899414" transform="matrix(1,0,0,1,-85.7,-47)"></rect><text joint-selector="text" id="v-3833" font-size="24px" xml:space="preserve" y="0.8em" fill="#444444" text-anchor="middle" pointer-events="none" font-family="Open Sans, Tahoma, Arial" font-weight="normal" transform="matrix(1,0,0,1,0,-38.9)"><tspan dy="0" >Redirige a login</tspan><tspan dy="1.2em" x="0" >ante 401</tspan><tspan dy="1.2em" x="0" >mediante</tspan></text></g><g id="v-3832"  label-idx="1" cursor="move" transform="matrix(1,0,0,1,3289,1673.800048828125)" style="cursor: default; opacity: 1;"><rect joint-selector="rect" id="v-3836" fill="#ffffff" rx="3" ry="3"  width="0" height="0" transform="matrix(1,0,0,1,0,0)" display="none"></rect><text joint-selector="text" id="v-3835" fill="#000000" font-size="14" text-anchor="middle" pointer-events="none"></text></g></g><g  display="none" style="display: none;"></g><g  id="v-3841" display="none"><g  id="v-3829"><path  end="source" d="M 26 0 L 0 13 L 26 26 z"></path></g><g  id="v-3830"><path  end="target" d="M 26 0 L 0 13 L 26 26 z"></path></g></g><g  id="v-3840" display="none"><g  id="v-3828" transform="translate(3135.8588349685538, 1767.549414458925) "><g  event="remove"><circle r="11"></circle><path transform="scale(.8) translate(-16, -16)" d="M24.778,21.419 19.276,15.917 24.777,10.415 21.949,7.585 16.447,13.087 10.945,7.585 8.117,10.415 13.618,15.917 8.116,21.419 10.946,24.248 16.447,18.746 21.948,24.248z"></path><title>Remove link.</title></g><g  event="link:options"><circle r="11" transform="translate(25)"></circle><path fill="white" transform="scale(.55) translate(29, -16)" d="M31.229,17.736c0.064-0.571,0.104-1.148,0.104-1.736s-0.04-1.166-0.104-1.737l-4.377-1.557c-0.218-0.716-0.504-1.401-0.851-2.05l1.993-4.192c-0.725-0.91-1.549-1.734-2.458-2.459l-4.193,1.994c-0.647-0.347-1.334-0.632-2.049-0.849l-1.558-4.378C17.165,0.708,16.588,0.667,16,0.667s-1.166,0.041-1.737,0.105L12.707,5.15c-0.716,0.217-1.401,0.502-2.05,0.849L6.464,4.005C5.554,4.73,4.73,5.554,4.005,6.464l1.994,4.192c-0.347,0.648-0.632,1.334-0.849,2.05l-4.378,1.557C0.708,14.834,0.667,15.412,0.667,16s0.041,1.165,0.105,1.736l4.378,1.558c0.217,0.715,0.502,1.401,0.849,2.049l-1.994,4.193c0.725,0.909,1.549,1.733,2.459,2.458l4.192-1.993c0.648,0.347,1.334,0.633,2.05,0.851l1.557,4.377c0.571,0.064,1.148,0.104,1.737,0.104c0.588,0,1.165-0.04,1.736-0.104l1.558-4.377c0.715-0.218,1.399-0.504,2.049-0.851l4.193,1.993c0.909-0.725,1.733-1.549,2.458-2.458l-1.993-4.193c0.347-0.647,0.633-1.334,0.851-2.049L31.229,17.736zM16,20.871c-2.69,0-4.872-2.182-4.872-4.871c0-2.69,2.182-4.872,4.872-4.872c2.689,0,4.871,2.182,4.871,4.872C20.871,18.689,18.689,20.871,16,20.871z"></path><title>Link options.</title></g></g></g></g><!--z-index:80--><g   id="j_266" ><path  stroke="#c0392b" d="M 2399 539 L 6599 1311" id="v-3857" stroke-width="2" stroke-dasharray="8 8" fill="none" style="opacity: 1;"></path><path  fill="black" stroke="black" d="M 0 0 0 0" transform="matrix(0.9835317080573949,0.1807356612450993,-0.1807356612450993,0.9835317080573949,2399,539.3499755859375)"></path><path  fill="#c0392b" stroke="#c0392b" d="M 20 0 L 0 10 L 20 20 z" id="v-3859" transform="matrix(-0.983531708057395,-0.18073566124509904,0.18073566124509904,-0.983531708057395,6597.192511249373,1320.9853250602123)" style="opacity: 1;"></path><path  d="M 2399 539 L 6599 1311" id="v-3858" fill="none" style="cursor: auto; pointer-events: visiblepainted;"></path><g ><g id="v-3848"  label-idx="0" cursor="move" transform="matrix(1,0,0,1,4499,911.5999755859375)" style="cursor: default; opacity: 1;"><rect joint-selector="rect" id="v-3852" fill="#ffffff" rx="3" ry="3" pointer-events="none" width="199.00990295410156" height="122.74992752075195" transform="matrix(1,0,0,1,-99.4,-61.4)"></rect><text joint-selector="text" id="v-3851" font-size="24px" xml:space="preserve" y="0.8em" fill="#c0392b" text-anchor="middle" pointer-events="none" font-family="Open Sans, Tahoma, Arial" font-weight="normal" transform="matrix(1,0,0,1,0,-53.3)"><tspan dy="0" >POST</tspan><tspan dy="1.2em" x="0" >/v1/auth/login ·</tspan><tspan dy="1.2em" x="0" >GET /v1/users/me</tspan><tspan dy="1.2em" x="0" >(SDD 3.4.1)</tspan></text></g><g id="v-3849"  label-idx="1" cursor="move" transform="matrix(1,0,0,1,4499,985.2000122070312)" style="cursor: default; opacity: 1;"><rect joint-selector="rect" id="v-3854" fill="#ffffff" rx="3" ry="3"  pointer-events="none" width="110.19313049316406" height="22.718703269958496" transform="matrix(1,0,0,1,-53.3,-11.3)" style="display: block;"></rect><text joint-selector="text" id="v-3853" font-size="16.799999999999997px" xml:space="preserve" y="0.8em" fill="#c0392b" text-anchor="middle" pointer-events="none"  font-family="Open Sans, Tahoma, Arial" font-weight="normal" transform="matrix(1,0,0,1,0,-6.6)" style="display: block;"><tspan dy="0" >[HTTPS/JSON]</tspan></text></g><g id="v-3850"  label-idx="2" cursor="move" transform="matrix(1,0,0,1,4489,993.5999755859375)" style="cursor: default; opacity: 1;"><rect joint-selector="rect" id="v-3856" fill="#ffffff" rx="3" ry="3"  width="0" height="0" transform="matrix(1,0,0,1,0,0)" display="none"></rect><text joint-selector="text" id="v-3855" fill="#000000" font-size="14" text-anchor="middle" pointer-events="none"></text></g></g><g  display="none" style="display: none;"></g><g  id="v-3861" display="none"><g  id="v-3846"><path  end="source" d="M 26 0 L 0 13 L 26 26 z"></path></g><g  id="v-3847"><path  end="target" d="M 26 0 L 0 13 L 26 26 z"></path></g></g><g  id="v-3860" display="none"><g  id="v-3845" transform="translate(2438.3409352786894, 546.2312385797973) "><g  event="remove"><circle r="11"></circle><path transform="scale(.8) translate(-16, -16)" d="M24.778,21.419 19.276,15.917 24.777,10.415 21.949,7.585 16.447,13.087 10.945,7.585 8.117,10.415 13.618,15.917 8.116,21.419 10.946,24.248 16.447,18.746 21.948,24.248z"></path><title>Remove link.</title></g><g  event="link:options"><circle r="11" transform="translate(25)"></circle><path fill="white" transform="scale(.55) translate(29, -16)" d="M31.229,17.736c0.064-0.571,0.104-1.148,0.104-1.736s-0.04-1.166-0.104-1.737l-4.377-1.557c-0.218-0.716-0.504-1.401-0.851-2.05l1.993-4.192c-0.725-0.91-1.549-1.734-2.458-2.459l-4.193,1.994c-0.647-0.347-1.334-0.632-2.049-0.849l-1.558-4.378C17.165,0.708,16.588,0.667,16,0.667s-1.166,0.041-1.737,0.105L12.707,5.15c-0.716,0.217-1.401,0.502-2.05,0.849L6.464,4.005C5.554,4.73,4.73,5.554,4.005,6.464l1.994,4.192c-0.347,0.648-0.632,1.334-0.849,2.05l-4.378,1.557C0.708,14.834,0.667,15.412,0.667,16s0.041,1.165,0.105,1.736l4.378,1.558c0.217,0.715,0.502,1.401,0.849,2.049l-1.994,4.193c0.725,0.909,1.549,1.733,2.459,2.458l4.192-1.993c0.648,0.347,1.334,0.633,2.05,0.851l1.557,4.377c0.571,0.064,1.148,0.104,1.737,0.104c0.588,0,1.165-0.04,1.736-0.104l1.558-4.377c0.715-0.218,1.399-0.504,2.049-0.851l4.193,1.993c0.909-0.725,1.733-1.549,2.458-2.458l-1.993-4.193c0.347-0.647,0.633-1.334,0.851-2.049L31.229,17.736zM16,20.871c-2.69,0-4.872-2.182-4.872-4.871c0-2.69,2.182-4.872,4.872-4.872c2.689,0,4.871,2.182,4.871,4.872C20.871,18.689,18.689,20.871,16,20.871z"></path><title>Link options.</title></g></g></g></g><!--z-index:81--><g   id="j_267" ><path  stroke="#444444" d="M 6149 1353 L 6599 1353" id="v-3877" stroke-width="2" stroke-dasharray="8 8" fill="none" style="opacity: 1;"></path><path  fill="black" stroke="black" d="M 0 0 0 0" transform="matrix(0.9999998456902117,-0.0005555353748157671,0.0005555353748157671,0.9999998456902117,6149,1352.8800048828125)"></path><path  fill="#444444" stroke="#444444" d="M 20 0 L 0 10 L 20 20 z" id="v-3879" transform="matrix(-0.9999998456902117,0.0005555353748156446,-0.0005555353748156446,-0.9999998456902117,6599.00555381065,1362.6299411500288)" style="opacity: 1;"></path><path  d="M 6149 1353 L 6599 1353" id="v-3878" fill="none" style="cursor: auto; pointer-events: visiblepainted;"></path><g ><g id="v-3868"  label-idx="0" cursor="move" transform="matrix(1,0,0,1,6374,1339.5999755859375)" style="cursor: default; opacity: 1;"><rect joint-selector="rect" id="v-3872" fill="#ffffff" rx="3" ry="3" pointer-events="none" width="196.16326904296875" height="65.1499252319336" transform="matrix(1,0,0,1,-97,-32.6)"></rect><text joint-selector="text" id="v-3871" font-size="24px" xml:space="preserve" y="0.8em" fill="#444444" text-anchor="middle" pointer-events="none" font-family="Open Sans, Tahoma, Arial" font-weight="normal" transform="matrix(1,0,0,1,0,-24.5)"><tspan dy="0" >GET /v1/catalog/c</tspan><tspan dy="1.2em" x="0" >ategories</tspan></text></g><g id="v-3869"  label-idx="1" cursor="move" transform="matrix(1,0,0,1,6374,1384.4000244140625)" style="cursor: default; opacity: 1;"><rect joint-selector="rect" id="v-3874" fill="#ffffff" rx="3" ry="3"  pointer-events="none" width="110.19313049316406" height="22.718703269958496" transform="matrix(1,0,0,1,-53.3,-11.3)" style="display: block;"></rect><text joint-selector="text" id="v-3873" font-size="16.799999999999997px" xml:space="preserve" y="0.8em" fill="#444444" text-anchor="middle" pointer-events="none"  font-family="Open Sans, Tahoma, Arial" font-weight="normal" transform="matrix(1,0,0,1,0,-6.6)" style="display: block;"><tspan dy="0" >[HTTPS/JSON]</tspan></text></g><g id="v-3870"  label-idx="2" cursor="move" transform="matrix(1,0,0,1,6364,1392.800048828125)" style="cursor: default; opacity: 1;"><rect joint-selector="rect" id="v-3876" fill="#ffffff" rx="3" ry="3"  width="0" height="0" transform="matrix(1,0,0,1,0,0)" display="none"></rect><text joint-selector="text" id="v-3875" fill="#000000" font-size="14" text-anchor="middle" pointer-events="none"></text></g></g><g  display="none" style="display: none;"></g><g  id="v-3881" display="none"><g  id="v-3866"><path  end="source" d="M 26 0 L 0 13 L 26 26 z"></path></g><g  id="v-3867"><path  end="target" d="M 26 0 L 0 13 L 26 26 z"></path></g></g><g  id="v-3880" display="none"><g  id="v-3865" transform="translate(6189, 1353) "><g  event="remove"><circle r="11"></circle><path transform="scale(.8) translate(-16, -16)" d="M24.778,21.419 19.276,15.917 24.777,10.415 21.949,7.585 16.447,13.087 10.945,7.585 8.117,10.415 13.618,15.917 8.116,21.419 10.946,24.248 16.447,18.746 21.948,24.248z"></path><title>Remove link.</title></g><g  event="link:options"><circle r="11" transform="translate(25)"></circle><path fill="white" transform="scale(.55) translate(29, -16)" d="M31.229,17.736c0.064-0.571,0.104-1.148,0.104-1.736s-0.04-1.166-0.104-1.737l-4.377-1.557c-0.218-0.716-0.504-1.401-0.851-2.05l1.993-4.192c-0.725-0.91-1.549-1.734-2.458-2.459l-4.193,1.994c-0.647-0.347-1.334-0.632-2.049-0.849l-1.558-4.378C17.165,0.708,16.588,0.667,16,0.667s-1.166,0.041-1.737,0.105L12.707,5.15c-0.716,0.217-1.401,0.502-2.05,0.849L6.464,4.005C5.554,4.73,4.73,5.554,4.005,6.464l1.994,4.192c-0.347,0.648-0.632,1.334-0.849,2.05l-4.378,1.557C0.708,14.834,0.667,15.412,0.667,16s0.041,1.165,0.105,1.736l4.378,1.558c0.217,0.715,0.502,1.401,0.849,2.049l-1.994,4.193c0.725,0.909,1.549,1.733,2.459,2.458l4.192-1.993c0.648,0.347,1.334,0.633,2.05,0.851l1.557,4.377c0.571,0.064,1.148,0.104,1.737,0.104c0.588,0,1.165-0.04,1.736-0.104l1.558-4.377c0.715-0.218,1.399-0.504,2.049-0.851l4.193,1.993c0.909-0.725,1.733-1.549,2.458-2.458l-1.993-4.193c0.347-0.647,0.633-1.334,0.851-2.049L31.229,17.736zM16,20.871c-2.69,0-4.872-2.182-4.872-4.871c0-2.69,2.182-4.872,4.872-4.872c2.689,0,4.871,2.182,4.871,4.872C20.871,18.689,18.689,20.871,16,20.871z"></path><title>Link options.</title></g></g></g></g><!--z-index:82--><g   id="j_268" ><path  stroke="#444444" d="M 6149 1803 L 6599 1503" id="v-3897" stroke-width="2" stroke-dasharray="8 8" fill="none" style="opacity: 1;"></path><path  fill="black" stroke="black" d="M 0 0 0 0" transform="matrix(0.8318425730487591,-0.5550116518268963,0.5550116518268963,0.8318425730487591,6148.81005859375,1803)"></path><path  fill="#444444" stroke="#444444" d="M 20 0 L 0 10 L 20 20 z" id="v-3899" transform="matrix(-0.8318427208572731,0.5550114302937994,-0.5550114302937994,-0.8318427208572731,6604.550182136511,1510.9483666165722)" style="opacity: 1;"></path><path  d="M 6149 1803 L 6599 1503" id="v-3898" fill="none" style="cursor: auto; pointer-events: visiblepainted;"></path><g ><g id="v-3888"  label-idx="0" cursor="move" transform="matrix(1,0,0,1,6374,1639.5999755859375)" style="cursor: default; opacity: 1;"><rect joint-selector="rect" id="v-3892" fill="#ffffff" rx="3" ry="3" pointer-events="none" width="195.78997802734375" height="151.54993438720703" transform="matrix(1,0,0,1,-97.2,-75.8)"></rect><text joint-selector="text" id="v-3891" font-size="24px" xml:space="preserve" y="0.8em" fill="#444444" text-anchor="middle" pointer-events="none" font-family="Open Sans, Tahoma, Arial" font-weight="normal" transform="matrix(1,0,0,1,0,-67.7)"><tspan dy="0" >POST /v1/service-</tspan><tspan dy="1.2em" x="0" >requests · GET /v</tspan><tspan dy="1.2em" x="0" >1/</tspan><tspan dy="1.2em" x="0" >service-</tspan><tspan dy="1.2em" x="0" >requests/{id}</tspan></text></g><g id="v-3889"  label-idx="1" cursor="move" transform="matrix(1,0,0,1,6374,1727.5999755859375)" style="cursor: default; opacity: 1;"><rect joint-selector="rect" id="v-3894" fill="#ffffff" rx="3" ry="3"  pointer-events="none" width="110.19313049316406" height="22.718703269958496" transform="matrix(1,0,0,1,-53.3,-11.3)" style="display: block;"></rect><text joint-selector="text" id="v-3893" font-size="16.799999999999997px" xml:space="preserve" y="0.8em" fill="#444444" text-anchor="middle" pointer-events="none"  font-family="Open Sans, Tahoma, Arial" font-weight="normal" transform="matrix(1,0,0,1,0,-6.6)" style="display: block;"><tspan dy="0" >[HTTPS/JSON]</tspan></text></g><g id="v-3890"  label-idx="2" cursor="move" transform="matrix(1,0,0,1,6364,1736)" style="cursor: default; opacity: 1;"><rect joint-selector="rect" id="v-3896" fill="#ffffff" rx="3" ry="3"  width="0" height="0" transform="matrix(1,0,0,1,0,0)" display="none"></rect><text joint-selector="text" id="v-3895" fill="#000000" font-size="14" text-anchor="middle" pointer-events="none"></text></g></g><g  display="none" style="display: none;"></g><g  id="v-3901" display="none"><g  id="v-3886"><path  end="source" d="M 26 0 L 0 13 L 26 26 z"></path></g><g  id="v-3887"><path  end="target" d="M 26 0 L 0 13 L 26 26 z"></path></g></g><g  id="v-3900" display="none"><g  id="v-3885" transform="translate(6182.282011773515, 1780.8119921509908) "><g  event="remove"><circle r="11"></circle><path transform="scale(.8) translate(-16, -16)" d="M24.778,21.419 19.276,15.917 24.777,10.415 21.949,7.585 16.447,13.087 10.945,7.585 8.117,10.415 13.618,15.917 8.116,21.419 10.946,24.248 16.447,18.746 21.948,24.248z"></path><title>Remove link.</title></g><g  event="link:options"><circle r="11" transform="translate(25)"></circle><path fill="white" transform="scale(.55) translate(29, -16)" d="M31.229,17.736c0.064-0.571,0.104-1.148,0.104-1.736s-0.04-1.166-0.104-1.737l-4.377-1.557c-0.218-0.716-0.504-1.401-0.851-2.05l1.993-4.192c-0.725-0.91-1.549-1.734-2.458-2.459l-4.193,1.994c-0.647-0.347-1.334-0.632-2.049-0.849l-1.558-4.378C17.165,0.708,16.588,0.667,16,0.667s-1.166,0.041-1.737,0.105L12.707,5.15c-0.716,0.217-1.401,0.502-2.05,0.849L6.464,4.005C5.554,4.73,4.73,5.554,4.005,6.464l1.994,4.192c-0.347,0.648-0.632,1.334-0.849,2.05l-4.378,1.557C0.708,14.834,0.667,15.412,0.667,16s0.041,1.165,0.105,1.736l4.378,1.558c0.217,0.715,0.502,1.401,0.849,2.049l-1.994,4.193c0.725,0.909,1.549,1.733,2.459,2.458l4.192-1.993c0.648,0.347,1.334,0.633,2.05,0.851l1.557,4.377c0.571,0.064,1.148,0.104,1.737,0.104c0.588,0,1.165-0.04,1.736-0.104l1.558-4.377c0.715-0.218,1.399-0.504,2.049-0.851l4.193,1.993c0.909-0.725,1.733-1.549,2.458-2.458l-1.993-4.193c0.347-0.647,0.633-1.334,0.851-2.049L31.229,17.736zM16,20.871c-2.69,0-4.872-2.182-4.872-4.871c0-2.69,2.182-4.872,4.872-4.872c2.689,0,4.871,2.182,4.871,4.872C20.871,18.689,18.689,20.871,16,20.871z"></path><title>Link options.</title></g></g></g></g><!--z-index:83--></g><g ></g><g ></g><g ></g></g></svg>